<svg width="661" height="288" viewBox="0 0 661 288" fill="#0D0D0D" xmlns="http://www.w3.org/2000/svg">
<path d="M95 124L121 132L105.5 130L95 124Z" />
<path d="M419.5 139L428 121L437 110.5L454 96.5L437 114L428 124.5L419.5 139Z" />
<path d="M246 132L235.899 109.553L225.203 96.4588L205 79L225.203 100.824L235.899 113.918L246 132Z" />
<path d="M548 23L380 71L420.5 86.5H490.5L548 75.5L596.5 67H660.5V50.5L548 23Z" />
<path d="M112.5 5L280.5 53L240 68.5H170L112.5 57.5L64 49H0V32.5L112.5 5Z" />
<path d="M318.5 0V20L307.5 34L293.5 38L302.5 27.5L318.5 0Z" />
<path d="M302.5 147L289 118L308.5 142V220.5L289 285L302.5 220.5V147Z" />
<ellipse cx="157" cy="88.5" rx="36" ry="32.5" />
<ellipse cx="505" cy="101.5" rx="36" ry="32.5" />
<path d="M40 83.5L59 70L81.5 64.5L109.5 62L81.5 68L59 73.5L46.5 83.5L63 99.5L40 83.5Z" />
<path d="M625.5 101.5L606.5 88L584 82.5L556 80L584 86L606.5 91.5L619 101.5L602.5 117.5L625.5 101.5Z" />
<path d="M517 147L563.5 135.5L545 143L517 147Z" />
<path d="M160 169.353L198.755 172.412L247 164L243.836 169.353L198.755 177L160 169.353Z" />
<path d="M507 182.353L468.245 185.412L420 177L423.164 182.353L468.245 190L507 182.353Z" />
<path d="M309 110.081L323.376 114L336.071 112.919L347 109L336.071 111.973L323.376 112.919L309 110.081Z" />
<path d="M292 74L302 81L304 89.5L309 106L292 74Z" />
<path d="M352 98.0004L316.5 95.0004L303.5 95.0004L286 93.3463L306 91.0004L352 98.0004Z" />
</svg>