<svg width="163" height="140" viewBox="0 0 163 140" fill="none" xmlns="http://www.w3.org/2000/svg">
<path d="M35.4088 55.3889C27.6441 72.3056 7.61936 81.5695 10.8888 95.6667C2.30668 88.4167 0.572273 79.1528 1.08068 72.3056C2.30668 55.7917 26.4181 40.8889 28.4615 28C37.0434 37.6667 36.4741 53.068 35.4088 55.3889Z" fill="#0D0D0D"/>
<path d="M31.0574 86.5002C27.4339 95.2502 18.089 100.042 19.6148 107.333C15.6098 103.583 14.8004 98.7918 15.0376 95.2502C15.6098 86.7085 26.8618 79.0002 27.8153 72.3335C31.8203 77.3335 31.5546 85.2997 31.0574 86.5002Z" fill="#0D0D0D"/>
<path d="M5.98165 14.1667C10.1228 22.9167 20.8027 27.7083 19.059 35C23.6361 31.25 24.5611 26.4583 24.29 22.9167C23.6361 14.375 10.7767 6.66667 9.6869 0C5.10984 5 5.41349 12.9662 5.98165 14.1667Z" fill="#0D0D0D"/>
<path d="M54 48.88C54.7067 48.88 55.52 48.98 56.44 49.18C57.3733 49.38 58.0533 49.5933 58.48 49.82V53.7H57.72C56.4933 51.6067 54.8667 50.56 52.84 50.56C51.96 50.56 51.1533 50.82 50.42 51.34C49.7 51.8467 49.1333 52.56 48.72 53.48C48.3067 54.3867 48.1 55.4067 48.1 56.54C48.1 57.8467 48.3 59.04 48.7 60.12C49.1133 61.2 49.7333 62.0667 50.56 62.72C51.4 63.3733 52.4333 63.7 53.66 63.7C54.7933 63.7 56.42 62.8467 58.54 61.14L59.14 62.1L55.46 64.96C54.9667 65.1333 54.4867 65.2467 54.02 65.3C53.5667 65.3667 53.0733 65.4 52.54 65.4C51.14 65.4 49.9 65.06 48.82 64.38C47.74 63.7 46.9 62.7667 46.3 61.58C45.7 60.38 45.4 59.02 45.4 57.5C45.4 55.94 45.8533 54.5 46.76 53.18C47.6667 51.8467 48.7933 50.8 50.14 50.04C51.4867 49.2667 52.7733 48.88 54 48.88ZM73.2863 65H69.4863V62.92L66.9463 65.04C66.6663 65.1467 66.2996 65.2 65.8463 65.2C64.9396 65.2 64.2196 64.9267 63.6863 64.38C63.1529 63.82 62.8863 63.0667 62.8863 62.12V57.34L61.1063 56.3V55.68L64.5263 54H65.2863V61.12C65.2863 61.8533 65.3996 62.3667 65.6263 62.66C65.8529 62.9533 66.2596 63.1 66.8463 63.1C67.2596 63.1 67.6663 63.0267 68.0663 62.88C68.4663 62.72 68.9396 62.4133 69.4863 61.96V57.34L67.7063 56.3V55.68L71.1263 54H71.8863V63.5L73.6863 64.2L73.2863 65ZM80.6706 65H75.0906V64.38L76.8706 62.98V50.68L75.0906 49.44V48.82L78.5106 47.54H79.2706V63.5L81.0706 64.2L80.6706 65ZM88.5734 65.04C88.2668 65.1467 87.8934 65.2 87.4534 65.2C86.3468 65.2 85.5334 64.9133 85.0134 64.34C84.5068 63.7533 84.2534 62.8533 84.2534 61.64V55.8H82.0934V54.98L85.8934 50.56H86.6534V54.98H90.2534V55.8H86.6534V61.88C86.6534 62.96 87.1734 63.5 88.2134 63.5C88.4934 63.5 88.7601 63.44 89.0134 63.32C89.2801 63.2 89.6068 62.9867 89.9934 62.68L90.5934 63.44L88.5734 65.04ZM103.775 65H99.9745V62.92L97.4345 65.04C97.1545 65.1467 96.7879 65.2 96.3345 65.2C95.4279 65.2 94.7079 64.9267 94.1745 64.38C93.6412 63.82 93.3745 63.0667 93.3745 62.12V57.34L91.5945 56.3V55.68L95.0145 54H95.7745V61.12C95.7745 61.8533 95.8879 62.3667 96.1145 62.66C96.3412 62.9533 96.7479 63.1 97.3345 63.1C97.7479 63.1 98.1545 63.0267 98.5545 62.88C98.9545 62.72 99.4279 62.4133 99.9745 61.96V57.34L98.1945 56.3V55.68L101.615 54H102.375V63.5L104.175 64.2L103.775 65ZM113.199 54.2C113.639 54.2 114.026 54.32 114.359 54.56C114.692 54.8 114.952 55.1333 115.139 55.56L113.819 57.22H113.059C113.006 56.8867 112.906 56.6533 112.759 56.52C112.626 56.3733 112.439 56.3 112.199 56.3C111.906 56.3 111.592 56.38 111.259 56.54C110.939 56.6867 110.572 56.9733 110.159 57.4V63.36L112.959 64.22L112.559 65.02H105.979V64.4L107.759 63V57.34L105.979 56.3V55.68L109.399 54L110.019 56.46L112.099 54.34C112.379 54.2333 112.746 54.18 113.199 54.18V54.2ZM126.575 65H122.775V63.26L120.515 65.04C120.248 65.1467 119.915 65.2 119.515 65.2C118.368 65.2 117.535 64.9133 117.015 64.34C116.508 63.7667 116.255 63.08 116.255 62.28C116.255 61.8 116.428 61.3267 116.775 60.86C117.121 60.3933 117.615 59.9533 118.255 59.54H122.775V58.26C122.775 57.3933 122.541 56.78 122.075 56.42C121.621 56.06 120.995 55.88 120.195 55.88C119.368 55.88 118.355 56.38 117.155 57.38L116.555 56.62L119.435 54.34C119.968 54.2333 120.608 54.18 121.355 54.18C122.568 54.18 123.508 54.48 124.175 55.08C124.841 55.6667 125.175 56.5267 125.175 57.66V63.5L126.975 64.2L126.575 65ZM120.155 63.5C120.968 63.5 121.841 63.1267 122.775 62.38V60.36H119.235C119.061 60.5733 118.935 60.7867 118.855 61C118.788 61.2133 118.755 61.4467 118.755 61.7C118.755 62.1933 118.881 62.62 119.135 62.98C119.388 63.3267 119.728 63.5 120.155 63.5ZM133.757 65H128.177V64.38L129.957 62.98V50.68L128.177 49.44V48.82L131.597 47.54H132.357V63.5L134.157 64.2L133.757 65Z" fill="#0D0D0D"/>
<path d="M51.28 90H45.2V89.38L47.08 87.9V75.78L45 75.08L45.4 74.28H51.48V74.9L49.58 76.38V88.48L51.68 89.2L51.28 90ZM66.1519 90.02H62.3519V83.28C62.3519 82.5467 62.2385 82.0333 62.0119 81.74C61.7852 81.4467 61.3785 81.3 60.7919 81.3C60.3519 81.3 59.9119 81.38 59.4719 81.54C59.0452 81.7 58.5385 82.0067 57.9519 82.46V88.52L59.7519 89.22L59.3519 90.02H53.7719V89.4L55.5519 88V82.34L53.7719 81.3V80.68L57.1919 79L57.8519 81.6L60.6919 79.34C60.9719 79.2333 61.3385 79.18 61.7919 79.18C62.6985 79.18 63.4185 79.46 63.9519 80.02C64.4852 80.5667 64.7519 81.3133 64.7519 82.26V88.5L66.5519 89.22L66.1519 90.02ZM76.9069 80.76C77.2802 81.2933 77.4669 81.8933 77.4669 82.56C77.4669 83.1467 77.3002 83.7267 76.9669 84.3C76.6335 84.86 76.1869 85.3533 75.6269 85.78C75.0669 86.2067 74.4535 86.5267 73.7869 86.74C73.4269 87.1 73.2469 87.48 73.2469 87.88C73.2469 88.1067 73.4202 88.32 73.7669 88.52C74.1269 88.7067 74.6535 88.9333 75.3469 89.2C76.2935 89.5733 77.0202 89.9133 77.5269 90.22C78.0469 90.54 78.3069 90.9267 78.3069 91.38C78.3069 91.78 78.0469 92.2933 77.5269 92.92C77.0202 93.5467 76.3869 94.0933 75.6269 94.56C74.8669 95.0267 74.1335 95.26 73.4269 95.26C72.6802 95.26 71.7935 95.1333 70.7669 94.88C69.7535 94.6267 68.9069 94.3733 68.2269 94.12V91.04H68.9869C69.7335 91.96 70.4935 92.66 71.2669 93.14C72.0402 93.62 72.9135 93.86 73.8869 93.86C74.2469 93.86 74.5735 93.7867 74.8669 93.64C75.1735 93.4933 75.4069 93.3067 75.5669 93.08C75.7402 92.8667 75.8269 92.66 75.8269 92.46C75.8269 92.1 75.6202 91.7867 75.2069 91.52C74.7935 91.2667 74.1469 90.9533 73.2669 90.58C72.4269 90.2333 71.8002 89.9333 71.3869 89.68C70.9869 89.4267 70.7869 89.1333 70.7869 88.8C70.7869 88.48 71.0002 88.1533 71.4269 87.82C71.8535 87.4867 72.3602 87.1933 72.9469 86.94C72.7335 86.98 72.5135 87 72.2869 87C71.5802 87 70.9335 86.8467 70.3469 86.54C69.7602 86.22 69.2935 85.8 68.9469 85.28C68.6135 84.76 68.4469 84.1933 68.4469 83.58C68.4469 82.8467 68.7002 82.14 69.2069 81.46C69.7135 80.78 70.3669 80.2333 71.1669 79.82C71.9802 79.3933 72.8069 79.18 73.6469 79.18C74.5802 79.18 75.4002 79.4467 76.1069 79.98H79.2469L79.2669 80.76H76.9069ZM73.4469 85.28C74.0469 85.28 74.5002 85.1333 74.8069 84.84C75.1269 84.5333 75.2869 84.0867 75.2869 83.5C75.2869 82.7 75.0269 82.0533 74.5069 81.56C74.0002 81.0667 73.3269 80.82 72.4869 80.82C71.9002 80.82 71.4469 80.9667 71.1269 81.26C70.8202 81.54 70.6669 81.9733 70.6669 82.56C70.6669 83.3733 70.9202 84.0333 71.4269 84.54C71.9469 85.0333 72.6202 85.28 73.4469 85.28ZM86.1198 90H80.5398V89.38L82.3198 87.98V75.68L80.5398 74.44V73.82L83.9598 72.54H84.7198V88.5L86.5198 89.2L86.1198 90ZM95.1427 90.04C94.6093 90.1467 93.9693 90.2 93.2227 90.2C92.3427 90.2 91.5493 89.9733 90.8427 89.52C90.1493 89.0533 89.6027 88.4267 89.2027 87.64C88.816 86.8533 88.6227 85.9867 88.6227 85.04C88.6227 84.0133 88.936 83.0533 89.5627 82.16C90.1893 81.2533 90.9693 80.5333 91.9027 80C92.8493 79.4533 93.7627 79.18 94.6427 79.18C95.9093 79.18 96.8893 79.68 97.5827 80.68C98.2893 81.68 98.6427 83 98.6427 84.64H91.2427C91.3227 85.7733 91.6293 86.7 92.1627 87.42C92.7093 88.14 93.4493 88.5 94.3827 88.5C95.2493 88.5 96.4827 87.8267 98.0827 86.48L98.6827 87.24L95.1427 90.04ZM93.4827 80.86C92.0427 80.86 91.2893 81.8467 91.2227 83.82H95.9027C95.7827 83.1 95.656 82.5533 95.5227 82.18C95.4027 81.7933 95.1827 81.48 94.8627 81.24C94.556 80.9867 94.096 80.86 93.4827 80.86ZM107.614 87.84C107.614 87.4667 107.408 87.1267 106.994 86.82C106.581 86.5 105.948 86.12 105.094 85.68C104.401 85.32 103.841 85.0067 103.414 84.74C102.988 84.4733 102.621 84.1667 102.314 83.82C102.021 83.46 101.874 83.0733 101.874 82.66C101.874 82.18 102.074 81.6667 102.474 81.12C102.874 80.5733 103.368 80.1133 103.954 79.74C104.541 79.3667 105.088 79.18 105.594 79.18C106.208 79.18 106.914 79.26 107.714 79.42C108.528 79.5667 109.114 79.7333 109.474 79.92V83H108.714C108.288 82.1733 107.794 81.5333 107.234 81.08C106.674 80.6133 106.101 80.38 105.514 80.38C105.101 80.38 104.768 80.4933 104.514 80.72C104.261 80.9333 104.134 81.2067 104.134 81.54C104.134 81.9533 104.348 82.3267 104.774 82.66C105.214 82.98 105.874 83.36 106.754 83.8C107.434 84.1467 107.981 84.4467 108.394 84.7C108.808 84.9533 109.154 85.2533 109.434 85.6C109.728 85.9333 109.874 86.3067 109.874 86.72C109.874 87.2133 109.661 87.7333 109.234 88.28C108.821 88.8133 108.308 89.2667 107.694 89.64C107.094 90.0133 106.541 90.2 106.034 90.2C105.381 90.2 104.601 90.1267 103.694 89.98C102.801 89.82 102.161 89.6467 101.774 89.46V86.38H102.534C103.001 87.2067 103.554 87.8533 104.194 88.32C104.834 88.7733 105.481 89 106.134 89C106.574 89 106.928 88.8867 107.194 88.66C107.474 88.4333 107.614 88.16 107.614 87.84ZM122.766 90H118.966V88.26L116.706 90.04C116.439 90.1467 116.106 90.2 115.706 90.2C114.559 90.2 113.726 89.9133 113.206 89.34C112.699 88.7667 112.446 88.08 112.446 87.28C112.446 86.8 112.619 86.3267 112.966 85.86C113.313 85.3933 113.806 84.9533 114.446 84.54H118.966V83.26C118.966 82.3933 118.733 81.78 118.266 81.42C117.813 81.06 117.186 80.88 116.386 80.88C115.559 80.88 114.546 81.38 113.346 82.38L112.746 81.62L115.626 79.34C116.159 79.2333 116.799 79.18 117.546 79.18C118.759 79.18 119.699 79.48 120.366 80.08C121.033 80.6667 121.366 81.5267 121.366 82.66V88.5L123.166 89.2L122.766 90ZM116.346 88.5C117.159 88.5 118.033 88.1267 118.966 87.38V85.36H115.426C115.253 85.5733 115.126 85.7867 115.046 86C114.979 86.2133 114.946 86.4467 114.946 86.7C114.946 87.1933 115.073 87.62 115.326 87.98C115.579 88.3267 115.919 88.5 116.346 88.5Z" fill="#0D0D0D"/>
<path d="M55.55 133.63L55.955 134.275L53.195 135.97C52.775 136.1 52.365 136.185 51.965 136.225C51.575 136.275 51.155 136.3 50.705 136.3C49.595 136.3 48.61 136.045 47.75 135.535C46.9 135.025 46.235 134.325 45.755 133.435C45.285 132.535 45.05 131.515 45.05 130.375C45.05 129.205 45.405 128.125 46.115 127.135C46.825 126.135 47.71 125.35 48.77 124.78C49.83 124.2 50.84 123.91 51.8 123.91C52.37 123.91 53.035 123.985 53.795 124.135C54.555 124.285 55.11 124.445 55.46 124.615V127.525H54.89C53.89 125.955 52.57 125.17 50.93 125.17C50.21 125.17 49.555 125.365 48.965 125.755C48.375 126.135 47.91 126.67 47.57 127.36C47.24 128.04 47.075 128.805 47.075 129.655C47.075 130.635 47.235 131.53 47.555 132.34C47.885 133.15 48.385 133.8 49.055 134.29C49.725 134.78 50.555 135.025 51.545 135.025C51.985 135.025 52.35 135.01 52.64 134.98C52.93 134.95 53.275 134.855 53.675 134.695V131.155L51.365 130.51L51.665 129.91H56.975V130.375L55.55 131.5V133.63ZM67.3123 136H64.4623V134.44L62.5573 136.03C62.3473 136.11 62.0723 136.15 61.7323 136.15C61.0523 136.15 60.5123 135.945 60.1123 135.535C59.7123 135.115 59.5123 134.55 59.5123 133.84V130.255L58.1773 129.475V129.01L60.7423 127.75H61.3123V133.09C61.3123 133.64 61.3973 134.025 61.5673 134.245C61.7373 134.465 62.0423 134.575 62.4823 134.575C62.7923 134.575 63.0973 134.52 63.3973 134.41C63.6973 134.29 64.0523 134.06 64.4623 133.72V130.255L63.1273 129.475V129.01L65.6923 127.75H66.2623V134.875L67.6123 135.4L67.3123 136ZM76.7806 136H73.9306V134.695L72.2356 136.03C72.0356 136.11 71.7856 136.15 71.4856 136.15C70.6256 136.15 70.0006 135.935 69.6106 135.505C69.2306 135.075 69.0406 134.56 69.0406 133.96C69.0406 133.6 69.1706 133.245 69.4306 132.895C69.6906 132.545 70.0606 132.215 70.5406 131.905H73.9306V130.945C73.9306 130.295 73.7556 129.835 73.4056 129.565C73.0656 129.295 72.5956 129.16 71.9956 129.16C71.3756 129.16 70.6156 129.535 69.7156 130.285L69.2656 129.715L71.4256 128.005C71.8256 127.925 72.3056 127.885 72.8656 127.885C73.7756 127.885 74.4806 128.11 74.9806 128.56C75.4806 129 75.7306 129.645 75.7306 130.495V134.875L77.0806 135.4L76.7806 136ZM71.9656 134.875C72.5756 134.875 73.2306 134.595 73.9306 134.035V132.52H71.2756C71.1456 132.68 71.0506 132.84 70.9906 133C70.9406 133.16 70.9156 133.335 70.9156 133.525C70.9156 133.895 71.0106 134.215 71.2006 134.485C71.3906 134.745 71.6456 134.875 71.9656 134.875ZM82.167 136H77.982V135.535L79.317 134.485V125.26L77.982 124.33V123.865L80.547 122.905H81.117V134.875L82.467 135.4L82.167 136ZM88.9341 136.03C88.5341 136.11 88.0541 136.15 87.4941 136.15C86.8341 136.15 86.2391 135.98 85.7091 135.64C85.1891 135.29 84.7791 134.82 84.4791 134.23C84.1891 133.64 84.0441 132.99 84.0441 132.28C84.0441 131.51 84.2791 130.79 84.7491 130.12C85.2191 129.44 85.8041 128.9 86.5041 128.5C87.2141 128.09 87.8991 127.885 88.5591 127.885C89.5091 127.885 90.2441 128.26 90.7641 129.01C91.2941 129.76 91.5591 130.75 91.5591 131.98H86.0091C86.0691 132.83 86.2991 133.525 86.6991 134.065C87.1091 134.605 87.6641 134.875 88.3641 134.875C89.0141 134.875 89.9391 134.37 91.1391 133.36L91.5891 133.93L88.9341 136.03ZM87.6891 129.145C86.6091 129.145 86.0441 129.885 85.9941 131.365H89.5041C89.4141 130.825 89.3191 130.415 89.2191 130.135C89.1291 129.845 88.9641 129.61 88.7241 129.43C88.4941 129.24 88.1491 129.145 87.6891 129.145ZM100.028 129.07C100.308 129.47 100.448 129.92 100.448 130.42C100.448 130.86 100.323 131.295 100.073 131.725C99.8228 132.145 99.4878 132.515 99.0678 132.835C98.6478 133.155 98.1878 133.395 97.6878 133.555C97.4178 133.825 97.2828 134.11 97.2828 134.41C97.2828 134.58 97.4128 134.74 97.6728 134.89C97.9428 135.03 98.3378 135.2 98.8578 135.4C99.5678 135.68 100.113 135.935 100.493 136.165C100.883 136.405 101.078 136.695 101.078 137.035C101.078 137.335 100.883 137.72 100.493 138.19C100.113 138.66 99.6378 139.07 99.0678 139.42C98.4978 139.77 97.9478 139.945 97.4178 139.945C96.8578 139.945 96.1928 139.85 95.4228 139.66C94.6628 139.47 94.0278 139.28 93.5178 139.09V136.78H94.0878C94.6478 137.47 95.2178 137.995 95.7978 138.355C96.3778 138.715 97.0328 138.895 97.7628 138.895C98.0328 138.895 98.2778 138.84 98.4978 138.73C98.7278 138.62 98.9028 138.48 99.0228 138.31C99.1528 138.15 99.2178 137.995 99.2178 137.845C99.2178 137.575 99.0628 137.34 98.7528 137.14C98.4428 136.95 97.9578 136.715 97.2978 136.435C96.6678 136.175 96.1978 135.95 95.8878 135.76C95.5878 135.57 95.4378 135.35 95.4378 135.1C95.4378 134.86 95.5978 134.615 95.9178 134.365C96.2378 134.115 96.6178 133.895 97.0578 133.705C96.8978 133.735 96.7328 133.75 96.5628 133.75C96.0328 133.75 95.5478 133.635 95.1078 133.405C94.6678 133.165 94.3178 132.85 94.0578 132.46C93.8078 132.07 93.6828 131.645 93.6828 131.185C93.6828 130.635 93.8728 130.105 94.2528 129.595C94.6328 129.085 95.1228 128.675 95.7228 128.365C96.3328 128.045 96.9528 127.885 97.5828 127.885C98.2828 127.885 98.8978 128.085 99.4278 128.485H101.783L101.798 129.07H100.028ZM97.4328 132.46C97.8828 132.46 98.2228 132.35 98.4528 132.13C98.6928 131.9 98.8128 131.565 98.8128 131.125C98.8128 130.525 98.6178 130.04 98.2278 129.67C97.8478 129.3 97.3428 129.115 96.7128 129.115C96.2728 129.115 95.9328 129.225 95.6928 129.445C95.4628 129.655 95.3478 129.98 95.3478 130.42C95.3478 131.03 95.5378 131.525 95.9178 131.905C96.3078 132.275 96.8128 132.46 97.4328 132.46ZM111.888 136H109.038V134.44L107.133 136.03C106.923 136.11 106.648 136.15 106.308 136.15C105.628 136.15 105.088 135.945 104.688 135.535C104.288 135.115 104.088 134.55 104.088 133.84V130.255L102.753 129.475V129.01L105.318 127.75H105.888V133.09C105.888 133.64 105.973 134.025 106.143 134.245C106.313 134.465 106.618 134.575 107.058 134.575C107.368 134.575 107.673 134.52 107.973 134.41C108.273 134.29 108.628 134.06 109.038 133.72V130.255L107.703 129.475V129.01L110.268 127.75H110.838V134.875L112.188 135.4L111.888 136ZM121.356 136H118.506V134.695L116.811 136.03C116.611 136.11 116.361 136.15 116.061 136.15C115.201 136.15 114.576 135.935 114.186 135.505C113.806 135.075 113.616 134.56 113.616 133.96C113.616 133.6 113.746 133.245 114.006 132.895C114.266 132.545 114.636 132.215 115.116 131.905H118.506V130.945C118.506 130.295 118.331 129.835 117.981 129.565C117.641 129.295 117.171 129.16 116.571 129.16C115.951 129.16 115.191 129.535 114.291 130.285L113.841 129.715L116.001 128.005C116.401 127.925 116.881 127.885 117.441 127.885C118.351 127.885 119.056 128.11 119.556 128.56C120.056 129 120.306 129.645 120.306 130.495V134.875L121.656 135.4L121.356 136ZM116.541 134.875C117.151 134.875 117.806 134.595 118.506 134.035V132.52H115.851C115.721 132.68 115.626 132.84 115.566 133C115.516 133.16 115.491 133.335 115.491 133.525C115.491 133.895 115.586 134.215 115.776 134.485C115.966 134.745 116.221 134.875 116.541 134.875ZM130.777 128.5L126.982 136L123.862 139.96L123.292 139.51C123.862 138.9 124.292 138.365 124.582 137.905C124.882 137.445 125.092 136.98 125.212 136.51C125.332 136.05 125.392 135.5 125.392 134.86L123.502 130.285L122.107 129.475V129.01L124.672 127.75L125.242 130.015L127.072 134.485L129.187 130.09L127.192 128.635L127.492 128.035H130.777V128.5ZM136.145 127.885C136.555 127.885 137.03 127.945 137.57 128.065C138.12 128.175 138.515 128.3 138.755 128.44V130.75H138.185C137.795 130.25 137.345 129.86 136.835 129.58C136.335 129.29 135.815 129.145 135.275 129.145C134.815 129.145 134.465 129.35 134.225 129.76C133.995 130.17 133.88 130.77 133.88 131.56C133.88 132.5 134.085 133.29 134.495 133.93C134.905 134.56 135.49 134.875 136.25 134.875C136.82 134.875 137.63 134.465 138.68 133.645L139.13 134.215L136.82 136.03C136.42 136.11 135.94 136.15 135.38 136.15C134.72 136.15 134.125 135.98 133.595 135.64C133.075 135.29 132.665 134.82 132.365 134.23C132.075 133.64 131.93 132.99 131.93 132.28C131.93 131.51 132.145 130.785 132.575 130.105C133.015 129.425 133.565 128.885 134.225 128.485C134.885 128.085 135.525 127.885 136.145 127.885ZM149.889 136H147.039V130.945C147.039 130.395 146.954 130.01 146.784 129.79C146.614 129.57 146.309 129.46 145.869 129.46C145.539 129.46 145.209 129.52 144.879 129.64C144.559 129.76 144.179 129.99 143.739 130.33V134.875L145.089 135.4L144.789 136H140.604V135.535L141.939 134.485V125.26L140.604 124.33V123.865L143.169 122.905H143.739V129.625L145.794 128.005C146.004 127.925 146.279 127.885 146.619 127.885C147.299 127.885 147.839 128.095 148.239 128.515C148.639 128.925 148.839 129.485 148.839 130.195V134.875L150.189 135.4L149.889 136ZM160.227 136H157.377V134.44L155.472 136.03C155.262 136.11 154.987 136.15 154.647 136.15C153.967 136.15 153.427 135.945 153.027 135.535C152.627 135.115 152.427 134.55 152.427 133.84V130.255L151.092 129.475V129.01L153.657 127.75H154.227V133.09C154.227 133.64 154.312 134.025 154.482 134.245C154.652 134.465 154.957 134.575 155.397 134.575C155.707 134.575 156.012 134.52 156.312 134.41C156.612 134.29 156.967 134.06 157.377 133.72V130.255L156.042 129.475V129.01L158.607 127.75H159.177V134.875L160.527 135.4L160.227 136ZM158.892 123.265L155.592 125.86L154.992 125.56L156.597 122.62L158.607 122.905L158.892 123.265Z" fill="#0D0D0D"/>
<rect y="114" width="163" height="3" rx="1.5" fill="#0D0D0D"/>
</svg>
