<svg width="291" height="113" viewBox="0 0 291 113" fill="none" xmlns="http://www.w3.org/2000/svg">
<path d="M29.12 63H4.8V60.52L12.32 54.6V6.12L4 3.32L5.6 0.119999H29.92V2.6L22.32 8.52V56.92L30.72 59.8L29.12 63ZM64.8475 54.36C64.8475 52.8667 64.0208 51.5067 62.3675 50.28C60.7142 49 58.1808 47.48 54.7675 45.72C51.9942 44.28 49.7542 43.0267 48.0475 41.96C46.3408 40.8933 44.8742 39.6667 43.6475 38.28C42.4742 36.84 41.8875 35.2933 41.8875 33.64C41.8875 31.72 42.6875 29.6667 44.2875 27.48C45.8875 25.2933 47.8608 23.4533 50.2075 21.96C52.5542 20.4667 54.7408 19.72 56.7675 19.72C59.2208 19.72 62.0475 20.04 65.2475 20.68C68.5008 21.2667 70.8475 21.9333 72.2875 22.68V35H69.2475C67.5408 31.6933 65.5675 29.1333 63.3275 27.32C61.0875 25.4533 58.7942 24.52 56.4475 24.52C54.7942 24.52 53.4608 24.9733 52.4475 25.88C51.4342 26.7333 50.9275 27.8267 50.9275 29.16C50.9275 30.8133 51.7808 32.3067 53.4875 33.64C55.2475 34.92 57.8875 36.44 61.4075 38.2C64.1275 39.5867 66.3142 40.7867 67.9675 41.8C69.6208 42.8133 71.0075 44.0133 72.1275 45.4C73.3008 46.7333 73.8875 48.2267 73.8875 49.88C73.8875 51.8533 73.0342 53.9333 71.3275 56.12C69.6742 58.2533 67.6208 60.0667 65.1675 61.56C62.7675 63.0533 60.5542 63.8 58.5275 63.8C55.9142 63.8 52.7942 63.5067 49.1675 62.92C45.5942 62.28 43.0342 61.5867 41.4875 60.84V48.52H44.5275C46.3942 51.8267 48.6075 54.4133 51.1675 56.28C53.7275 58.0933 56.3142 59 58.9275 59C60.6875 59 62.1008 58.5467 63.1675 57.64C64.2875 56.7333 64.8475 55.64 64.8475 54.36ZM106.575 63.16C105.348 63.5867 103.855 63.8 102.095 63.8C97.6683 63.8 94.415 62.6533 92.335 60.36C90.3083 58.0133 89.295 54.4133 89.295 49.56V26.2H80.655V22.92L95.855 5.24H98.895V22.92H113.295V26.2H98.895V50.52C98.895 54.84 100.975 57 105.135 57C106.255 57 107.322 56.76 108.335 56.28C109.402 55.8 110.708 54.9467 112.255 53.72L114.655 56.76L106.575 63.16ZM146.758 63.16C144.625 63.5867 142.065 63.8 139.078 63.8C135.558 63.8 132.385 62.8933 129.558 61.08C126.785 59.2133 124.598 56.7067 122.998 53.56C121.451 50.4133 120.678 46.9467 120.678 43.16C120.678 39.0533 121.931 35.2133 124.438 31.64C126.945 28.0133 130.065 25.1333 133.798 23C137.585 20.8133 141.238 19.72 144.758 19.72C149.825 19.72 153.745 21.72 156.518 25.72C159.345 29.72 160.758 35 160.758 41.56H131.158C131.478 46.0933 132.705 49.8 134.838 52.68C137.025 55.56 139.985 57 143.718 57C147.185 57 152.118 54.3067 158.518 48.92L160.918 51.96L146.758 63.16ZM140.118 26.44C134.358 26.44 131.345 30.3867 131.078 38.28H149.798C149.318 35.4 148.811 33.2133 148.278 31.72C147.798 30.1733 146.918 28.92 145.638 27.96C144.411 26.9467 142.571 26.44 140.118 26.44ZM212.564 63H197.364V56.04L188.324 63.16C187.258 63.5867 185.924 63.8 184.324 63.8C179.738 63.8 176.404 62.6533 174.324 60.36C172.298 58.0667 171.284 55.32 171.284 52.12C171.284 50.2 171.978 48.3067 173.364 46.44C174.751 44.5733 176.724 42.8133 179.284 41.16H197.364V36.04C197.364 32.5733 196.431 30.12 194.564 28.68C192.751 27.24 190.244 26.52 187.044 26.52C183.738 26.52 179.684 28.52 174.884 32.52L172.484 29.48L184.004 20.36C186.138 19.9333 188.698 19.72 191.684 19.72C196.538 19.72 200.298 20.92 202.964 23.32C205.631 25.6667 206.964 29.1067 206.964 33.64V57L214.164 59.8L212.564 63ZM186.884 57C190.138 57 193.631 55.5067 197.364 52.52V44.44H183.204C182.511 45.2933 182.004 46.1467 181.684 47C181.418 47.8533 181.284 48.7867 181.284 49.8C181.284 51.7733 181.791 53.48 182.804 54.92C183.818 56.3067 185.178 57 186.884 57Z" fill="#0D0D0D"/>
<path d="M230.35 51.0249C231.43 51.0249 232.4 51.3749 233.26 52.0749C234.14 52.7549 234.82 53.6849 235.3 54.8649C235.8 56.0449 236.05 57.3449 236.05 58.7649C236.05 60.3049 235.58 61.7549 234.64 63.1149C233.7 64.4549 232.52 65.5349 231.1 66.3549C229.7 67.1549 228.34 67.5549 227.02 67.5549C226.2 67.5549 225.43 67.3749 224.71 67.0149C224.01 66.6549 223.39 66.1449 222.85 65.4849L221.56 67.2549H220.42V45.7749L217.75 43.9149V42.9849L222.88 41.0649H224.02V54.4449L228.04 51.2649C228.68 51.1049 229.45 51.0249 230.35 51.0249ZM228.76 65.0349C231.02 65.0349 232.15 63.4249 232.15 60.2049C232.15 58.3449 231.86 56.7749 231.28 55.4949C230.7 54.2149 229.88 53.5749 228.82 53.5749C228.06 53.5749 227.32 53.7249 226.6 54.0249C225.88 54.3249 225.02 54.9149 224.02 55.7949V61.1649C224.02 62.2649 224.43 63.1849 225.25 63.9249C226.07 64.6649 227.24 65.0349 228.76 65.0349ZM255.642 52.2549L248.052 67.2549L241.812 75.1749L240.672 74.2749C241.812 73.0549 242.672 71.9849 243.252 71.0649C243.852 70.1449 244.272 69.2149 244.512 68.2749C244.752 67.3549 244.872 66.2549 244.872 64.9749L241.092 55.8249L238.302 54.2049V53.2749L243.432 50.7549L244.572 55.2849L248.232 64.2249L252.462 55.4349L248.472 52.5249L249.072 51.3249H255.642V52.2549Z" fill="#0D0D0D"/>
<path d="M88.8 112H70.8V111.07L73.62 108.85V90.67L70.5 89.62L71.1 88.42H88.5L90.12 87.88V94.78L89.22 95.08L85.65 89.77H77.37V99.28H82.08L84.27 95.44H85.2V104.56L84 105.16L82.11 100.63H77.37V110.65H85.53L89.52 104.74L90.42 105.04V112.54L88.8 112ZM113.204 112H107.504V109.84L104.714 112.06C104.074 112.22 103.304 112.3 102.404 112.3C101.084 112.3 99.8936 111.96 98.8336 111.28C97.7936 110.58 96.9736 109.64 96.3736 108.46C95.7936 107.28 95.5036 105.98 95.5036 104.56C95.5036 103.02 95.9736 101.58 96.9136 100.24C97.8536 98.88 99.0236 97.8 100.424 97C101.844 96.18 103.214 95.77 104.534 95.77C105.634 95.77 106.634 96.08 107.534 96.7V90.52L104.864 88.66V87.73L109.994 85.81H111.134V109.75L113.804 110.8L113.204 112ZM103.934 109.75C104.534 109.75 105.104 109.67 105.644 109.51C106.204 109.33 106.824 109 107.504 108.52V101.68C107.384 100.68 106.914 99.87 106.094 99.25C105.294 98.61 104.194 98.29 102.794 98.29C100.534 98.29 99.4036 99.9 99.4036 103.12C99.4036 105 99.7936 106.58 100.574 107.86C101.354 109.12 102.474 109.75 103.934 109.75ZM133.906 112H128.206V108.88L124.396 112.06C123.976 112.22 123.426 112.3 122.746 112.3C121.386 112.3 120.306 111.89 119.506 111.07C118.706 110.23 118.306 109.1 118.306 107.68V100.51L115.636 98.95V98.02L120.766 95.5H121.906V106.18C121.906 107.28 122.076 108.05 122.416 108.49C122.756 108.93 123.366 109.15 124.246 109.15C124.866 109.15 125.476 109.04 126.076 108.82C126.676 108.58 127.386 108.12 128.206 107.44V100.51L125.536 98.95V98.02L130.666 95.5H131.806V109.75L134.506 110.8L133.906 112ZM146.093 95.77C146.913 95.77 147.863 95.89 148.943 96.13C150.043 96.35 150.833 96.6 151.313 96.88V101.5H150.173C149.393 100.5 148.493 99.72 147.473 99.16C146.473 98.58 145.433 98.29 144.353 98.29C143.433 98.29 142.733 98.7 142.253 99.52C141.793 100.34 141.563 101.54 141.563 103.12C141.563 105 141.973 106.58 142.793 107.86C143.613 109.12 144.783 109.75 146.303 109.75C147.443 109.75 149.063 108.93 151.163 107.29L152.063 108.43L147.443 112.06C146.643 112.22 145.683 112.3 144.563 112.3C143.243 112.3 142.053 111.96 140.993 111.28C139.953 110.58 139.133 109.64 138.533 108.46C137.953 107.28 137.663 105.98 137.663 104.56C137.663 103.02 138.093 101.57 138.953 100.21C139.833 98.85 140.933 97.77 142.253 96.97C143.573 96.17 144.853 95.77 146.093 95.77ZM171.241 112H165.541V109.39L162.151 112.06C161.751 112.22 161.251 112.3 160.651 112.3C158.931 112.3 157.681 111.87 156.901 111.01C156.141 110.15 155.761 109.12 155.761 107.92C155.761 107.2 156.021 106.49 156.541 105.79C157.061 105.09 157.801 104.43 158.761 103.81H165.541V101.89C165.541 100.59 165.191 99.67 164.491 99.13C163.811 98.59 162.871 98.32 161.671 98.32C160.431 98.32 158.911 99.07 157.111 100.57L156.211 99.43L160.531 96.01C161.331 95.85 162.291 95.77 163.411 95.77C165.231 95.77 166.641 96.22 167.641 97.12C168.641 98 169.141 99.29 169.141 100.99V109.75L171.841 110.8L171.241 112ZM161.611 109.75C162.831 109.75 164.141 109.19 165.541 108.07V105.04H160.231C159.971 105.36 159.781 105.68 159.661 106C159.561 106.32 159.511 106.67 159.511 107.05C159.511 107.79 159.701 108.43 160.081 108.97C160.461 109.49 160.971 109.75 161.611 109.75ZM183.124 95.77C183.944 95.77 184.894 95.89 185.974 96.13C187.074 96.35 187.864 96.6 188.344 96.88V101.5H187.204C186.424 100.5 185.524 99.72 184.504 99.16C183.504 98.58 182.464 98.29 181.384 98.29C180.464 98.29 179.764 98.7 179.284 99.52C178.824 100.34 178.594 101.54 178.594 103.12C178.594 105 179.004 106.58 179.824 107.86C180.644 109.12 181.814 109.75 183.334 109.75C184.474 109.75 186.094 108.93 188.194 107.29L189.094 108.43L184.474 112.06C183.674 112.22 182.714 112.3 181.594 112.3C180.274 112.3 179.084 111.96 178.024 111.28C176.984 110.58 176.164 109.64 175.564 108.46C174.984 107.28 174.694 105.98 174.694 104.56C174.694 103.02 175.124 101.57 175.984 100.21C176.864 98.85 177.964 97.77 179.284 96.97C180.604 96.17 181.884 95.77 183.124 95.77ZM201.012 112H192.642V111.07L195.312 108.97V100.21L192.642 98.35V97.42L197.772 95.5H198.912V109.75L201.612 110.8L201.012 112ZM196.992 86.5C197.592 86.5 198.082 86.72 198.462 87.16C198.862 87.6 199.062 88.15 199.062 88.81C199.062 89.27 198.922 89.71 198.642 90.13C198.362 90.53 198.012 90.85 197.592 91.09C197.172 91.33 196.762 91.45 196.362 91.45C195.762 91.45 195.262 91.23 194.862 90.79C194.482 90.35 194.292 89.8 194.292 89.14C194.292 88.68 194.432 88.25 194.712 87.85C194.992 87.43 195.342 87.1 195.762 86.86C196.182 86.62 196.592 86.5 196.992 86.5ZM213.782 95.77C215.102 95.77 216.282 96.12 217.322 96.82C218.382 97.5 219.202 98.43 219.782 99.61C220.382 100.79 220.682 102.09 220.682 103.51C220.682 105.05 220.212 106.5 219.272 107.86C218.332 109.2 217.152 110.28 215.732 111.1C214.332 111.9 212.972 112.3 211.652 112.3C210.332 112.3 209.142 111.96 208.082 111.28C207.042 110.58 206.222 109.64 205.622 108.46C205.042 107.28 204.752 105.98 204.752 104.56C204.752 103.02 205.222 101.58 206.162 100.24C207.102 98.88 208.272 97.8 209.672 97C211.092 96.18 212.462 95.77 213.782 95.77ZM212.042 98.29C209.782 98.29 208.652 99.9 208.652 103.12C208.652 105.02 209.062 106.61 209.882 107.89C210.702 109.15 211.872 109.78 213.392 109.78C215.652 109.78 216.782 108.16 216.782 104.92C216.782 103.04 216.372 101.47 215.552 100.21C214.732 98.93 213.562 98.29 212.042 98.29ZM218.732 86.53L212.132 91.72L210.932 91.12L214.142 85.24L218.162 85.81L218.732 86.53ZM242.999 112.03H237.299V101.92C237.299 100.82 237.129 100.05 236.789 99.61C236.449 99.17 235.839 98.95 234.959 98.95C234.299 98.95 233.639 99.07 232.979 99.31C232.339 99.55 231.579 100.01 230.699 100.69V109.78L233.399 110.83L232.799 112.03H224.429V111.1L227.099 109V100.51L224.429 98.95V98.02L229.559 95.5L230.549 99.4L234.809 96.01C235.229 95.85 235.779 95.77 236.459 95.77C237.819 95.77 238.899 96.19 239.699 97.03C240.499 97.85 240.899 98.97 240.899 100.39V109.75L243.599 110.83L242.999 112.03ZM263.641 112H254.521V111.07L257.341 108.85V90.67L254.221 89.62L254.821 88.42H263.941V89.35L261.091 91.57V109.72L264.241 110.8L263.641 112ZM288.589 95.38L287.689 95.68L283.699 89.77H280.039V109.72L283.189 110.8L282.589 112H273.469V111.07L276.289 108.85V89.77H272.719L268.729 95.68L267.829 95.38V87.88L269.449 88.42H286.969L288.589 87.88V95.38Z" fill="#0D0D0D"/>
<rect x="53" y="77" width="228" height="4" rx="2" fill="#0D0D0D"/>
</svg>
