<svg width="102" height="102" viewBox="0 0 102 102" fill="none" xmlns="http://www.w3.org/2000/svg">
<path d="M68.2941 32.7438C20.8555 62.6666 32.937 90.4 57.7509 101.347C23.0844 104.267 0.78515 76.6167 0.78515 56.4631C-2.49894 30.5544 19.6772 1.73645 39.8308 1.73645C59.9843 1.73645 68.2941 12.5903 68.2941 32.7438Z" fill="#F7EFEB"/>
<path d="M62.4554 44.421C52.6028 53.5438 45.6694 50.6246 37.6414 61.5719C29.1769 61.5719 37.6414 40.2281 37.6414 30.5544C37.6414 20.8807 57.2752 18.1473 65.7396 18.1473C72.3081 32.014 66.3965 40.7719 62.4554 44.421Z" fill="#F7EFEB"/>
<circle cx="40.6" cy="26.1754" r="8.75789" fill="#0D0D0D"/>
<path d="M33.7949 70.6594C80.853 40.1417 70.2826 12.1744 45.3328 1.54024C79.9598 -1.81524 100.746 25.9401 101 46.0921C104.61 71.9575 80.8222 101.094 60.6702 101.347C40.5183 101.601 34.0486 90.8113 33.7949 70.6594Z" fill="#0D0D0D"/>
<path d="M39.486 58.9096C49.223 49.6634 56.1926 52.4952 64.0822 41.4476C72.546 41.3411 64.3509 62.7898 64.4727 72.4627C64.5945 82.1356 44.9967 85.1159 36.5328 85.2225C29.7904 71.4396 35.5912 62.608 39.486 58.9096Z" fill="#0D0D0D"/>
<circle cx="59.5755" cy="77.2631" r="8.75789" fill="#F7EFEB"/>
</svg>
