<svg width="95" height="110" viewBox="0 0 95 110" fill="none" xmlns="http://www.w3.org/2000/svg">
<path d="M30.6994 57.4931C29.5717 58.0009 28.0863 56.0734 27.7689 55.5061C27.2517 54.5817 26.8682 53.4516 25.888 52.8411C24.9574 52.2616 24.2555 51.4609 23.5691 50.6832C22.8048 49.8173 21.8979 49.0614 21.2745 48.0785C20.3267 46.5841 18.5365 45.7321 17.402 44.3822C17.0072 43.9124 16.6211 43.3871 16.1841 42.9279C15.7871 42.5107 15.329 42.3713 14.908 42.0402C14.4627 41.69 13.7476 41.2718 13.4022 40.9485C12.7323 40.3214 12.3141 39.5242 11.7387 38.8268C11.0552 37.9983 10.0535 37.1978 9.49558 36.3141C8.59889 34.8939 8.057 33.1243 6.81449 31.9612C6.32379 31.5019 6.14133 30.7856 5.66651 30.2966C5.16656 29.7816 4.76653 29.2557 4.42013 28.6366C3.87435 27.6612 3.15485 26.8397 2.6167 25.8779" stroke="#0D0D0D" stroke-width="2" stroke-linecap="round"/>
<path d="M48.354 24.0405C48.0243 23.4512 46.7831 23.1336 46.1194 22.8327C45.1049 22.3728 44.072 22.6953 42.9037 22.6575C40.8424 22.5909 38.6924 22.8243 36.5324 23.0593C35.5284 23.1686 34.5006 23.5789 33.4881 23.6547C31.9803 23.7674 30.4632 23.8982 28.9396 24.064C25.8435 24.401 23.0308 24.3398 19.8166 25.3004C17.9749 25.8508 16.1899 25.7505 14.2902 26.4383C13.0729 26.879 11.5352 26.613 10.3648 26.6199C8.75267 26.6294 6.92851 26.5679 5.24758 26.864C4.34918 27.0223 3.51221 26.528 2.60791 26.7896" stroke="#0D0D0D" stroke-width="2" stroke-linecap="round"/>
<path d="M48.7057 24.2063C48.1077 24.5409 48.0536 25.3431 47.5693 25.8899C46.7824 26.7784 46.2337 27.7504 45.6171 28.6949C45.0378 29.5822 44.9118 30.5319 44.3127 31.4195C43.8568 32.095 42.7192 32.9295 43.0403 33.5822C43.294 34.098 43.2219 34.7894 43.4774 35.292C43.8521 36.029 44.2518 36.773 44.6966 37.4709C44.9836 37.9213 46.163 37.7787 46.7603 37.4445C47.2783 37.1546 48.2973 37.0933 48.8327 37.2016C50.4733 37.5334 52.3672 37.2564 53.826 37.7421C55.9349 38.4442 57.8584 39.1884 59.5353 40.31C60.0841 40.6771 60.4862 41.2454 60.9022 41.7211C61.2037 42.066 61.6434 42.9918 62.1909 43.0955C62.3214 43.1202 62.8129 43.2123 62.9723 43.2022C63.4614 43.1715 63.3947 43.7164 63.7389 43.9016C65.1744 44.674 66.2252 46.3281 67.2102 47.5001C68.521 49.0597 69.3815 50.9418 70.3721 52.7123C70.8343 53.5383 71.2965 54.3643 71.7588 55.1904C72.3196 56.1926 72.312 57.283 72.7474 58.3243C73.8204 60.8906 73.9498 63.7545 74.372 66.593C74.6863 68.7057 74.718 71.3712 74.0041 73.6997C73.1857 76.3692 72.6603 79.0234 71.719 81.6878C71.204 83.1456 69.5021 84.5889 68.7671 86.0596C67.923 87.7488 67.1861 89.374 66.2222 91.0298C65.2806 92.6474 64.8661 94.325 64.4938 95.8856C64.2742 96.8063 63.8183 97.9676 63.333 98.8926C62.8917 99.7335 61.6335 100.376 61.4117 101.237" stroke="#0D0D0D" stroke-width="2" stroke-linecap="round"/>
<path d="M69.5683 84.7046C69.4792 84.3259 69.9242 83.8485 70.1101 83.4545C70.5438 82.5355 70.5949 81.6242 70.7085 80.7321C70.8677 79.4812 71.2316 78.2181 71.4553 76.9594C71.8854 74.5394 72.3417 72.0309 72.3846 69.6695C72.425 67.4541 72.5579 64.84 71.8843 62.8169C71.4306 61.454 71.9121 59.6422 71.2149 58.3961" stroke="#0D0D0D" stroke-width="2" stroke-linecap="round"/>
<path d="M71.9986 77.9047C72.0576 78.0101 72.0025 77.6457 72.0113 77.5147C72.0724 76.6054 72.2223 75.6718 72.315 74.7557C72.4104 73.8132 72.6295 72.8395 72.5538 71.9323C72.4482 70.6677 72.5027 69.2583 72.6516 67.9284C72.7762 66.8152 73.0883 65.7585 73.0919 64.6396C73.0954 63.5156 72.7566 62.1425 72.4699 61.1292C72.3813 60.8162 72.2928 59.8234 72.4344 60.1114C73.0392 61.3408 73.0519 62.9466 73.3553 64.3109C73.6596 65.6791 73.95 67.4303 73.3644 68.9702C72.9461 70.0702 72.8804 71.0114 72.7729 72.0917C72.719 72.6329 72.6601 73.5743 72.9068 72.4601C73.1736 71.2553 73.4562 70.1443 73.2698 69.0332" stroke="#0D0D0D" stroke-width="2" stroke-linecap="round"/>
<path d="M38.5768 45.1062C38.1064 45.3694 37.6825 45.4859 37.1911 45.5189C36.2628 45.5812 35.8831 45.8841 35.064 46.6184C33.7079 47.8341 33.1162 48.9001 32.6954 50.3818C32.3156 51.7191 32.653 52.9035 32.3374 54.1786C32.0843 55.2011 31.3863 56.4964 31.4472 57.4371" stroke="#0D0D0D" stroke-width="2" stroke-linecap="round"/>
<path d="M38.809 45.5204C37.9293 47.6304 43.0419 47.6885 44.309 48.0239C46.7216 48.6626 48.4581 49.3862 49.9835 50.994C50.6572 51.7042 51.6184 52.1673 52.3427 52.8372C52.7015 53.169 52.9496 53.6018 53.4034 53.8556C54.3518 54.3861 54.8243 55.4205 55.4823 56.178C56.6293 57.4986 57.7567 58.953 58.6077 60.4738C61.4736 65.5955 62.7535 71.3176 62.2041 77.6831C62.0852 79.0604 61.4444 80.536 61.3694 81.9179C61.2983 83.2278 60.0994 85.0345 59.6795 86.4298C59.2165 87.9684 59.0937 89.4724 58.5484 91.0119C57.9906 92.5865 57.4226 94.2954 57.3364 95.8104C57.2199 97.8569 55.9638 100.322 56.9186 102.028C57.3176 102.741 58.0017 102.441 58.9091 102.103C59.5166 101.877 59.6157 102.242 60.4227 101.79C60.9177 101.513 61.2124 101.167 61.7304 100.877" stroke="#0D0D0D" stroke-width="2" stroke-linecap="round"/>
<path d="M58.4812 99.2498C58.4527 99.5045 58.5416 99.4245 58.4812 99.2498" stroke="#0D0D0D" stroke-width="2" stroke-linecap="round"/>
<path d="M64.182 99.6869C66.2016 98.5568 67.2741 97.7721 68.2024 95.9865C68.8909 94.662 69.4316 93.2717 70.0276 91.9228C70.8254 90.1172 70.9734 88.3083 71.6132 86.5021C71.9083 85.669 72.1944 84.8681 72.6308 84.0387C73.1711 83.0118 74.155 82.0839 74.6548 81.0525C75.325 79.6696 75.9557 78.0547 76.2515 76.6835C76.605 75.0445 77.247 73.1875 77.0156 71.6519C76.6852 69.4602 76.9241 66.9958 77.306 64.6389C77.7209 62.078 77.0353 59.7942 76.9785 57.3471C76.9592 56.5143 76.7208 55.2357 76.3297 54.5367C76.0425 54.0235 76.2364 53.2685 76.0623 52.6916C75.8478 51.9813 75.251 51.4418 75.0024 50.746C74.6601 49.7878 74.2309 48.9287 73.7339 48.0406C72.8578 46.4747 72.4652 44.8446 71.6054 43.3079C71.0837 42.3756 70.6157 41.4418 69.8621 40.6567C68.9226 39.6781 67.5922 38.7139 66.8637 37.6197C66.0605 36.4135 64.8249 35.3985 63.8904 34.2664C62.6034 32.7075 61.2274 31.4906 59.3994 30.3419C58.4485 29.7444 57.9299 28.8286 57.0495 28.2316C56.0925 27.5827 54.6716 27.1674 53.8681 26.4153C53.0874 25.6845 53.9023 23.8662 54.2919 22.8133C54.7953 21.4526 56.1527 20.1653 56.6722 18.7613C57.1704 17.4147 56.7101 16.3872 55.497 15.9131C54.4915 15.5201 52.9727 15.1886 51.7046 15.2748C50.7613 15.3388 49.7341 15.7244 48.7846 15.6796C47.7172 15.6292 46.4874 15.9998 45.4176 15.982C42.5852 15.9348 39.4154 17.0047 36.5451 16.8666C33.0249 16.6971 29.8784 17.4721 26.1594 18.89C24.7529 19.4263 22.8113 19.9322 21.4763 19.8583C21.0018 19.8321 20.4228 20.0887 19.9045 20.0931C19.0194 20.1007 18.181 19.8696 17.2562 20.0034C14.3562 20.4227 11.8953 20.686 9.06908 22.2674C6.47589 23.7185 3.64865 24.7565 1 26.2386" stroke="#0D0D0D" stroke-width="2" stroke-linecap="round"/>
<path d="M10.3247 22.4719C9.01112 23.2069 8.12397 24.4286 6.86356 25.1339C6.36185 25.4147 4.38423 26.8839 4.85269 26.6218" stroke="#0D0D0D" stroke-width="2" stroke-linecap="round"/>
<path d="M7.25075 26.7302C8.94777 25.7052 10.9661 24.1545 12.3271 22.8017" stroke="#0D0D0D" stroke-width="2" stroke-linecap="round"/>
<path d="M10.8026 25.6494C12.9781 24.3476 14.2278 22.4635 16.3952 21.2507" stroke="#0D0D0D" stroke-width="2" stroke-linecap="round"/>
<path d="M15.4798 26.1151C16.5522 24.4088 18.1034 22.9996 19.3443 21.4139" stroke="#0D0D0D" stroke-width="2" stroke-linecap="round"/>
<path d="M20.9243 24.7007C23.0549 23.0849 24.6331 21.1748 27.0332 19.8317" stroke="#0D0D0D" stroke-width="2" stroke-linecap="round"/>
<path d="M24.6216 24.8079C25.8345 23.5087 27.5501 22.4843 28.8746 21.2394C29.6249 20.5342 30.307 19.7846 31.015 19.0544" stroke="#0D0D0D" stroke-width="2" stroke-linecap="round"/>
<path d="M29.032 24.3344C31.0022 21.7244 34.0546 20.1601 36.2601 17.7512" stroke="#0D0D0D" stroke-width="2" stroke-linecap="round"/>
<path d="M33.6423 23.7499C35.3412 21.7738 37.5716 20.1033 39.5863 18.3284C40.1708 17.8135 42.2366 16.5835 41.5412 16.9726" stroke="#0D0D0D" stroke-width="2" stroke-linecap="round"/>
<path d="M38.2174 22.6404C39.1342 22.0797 40.2675 21.4153 40.8483 20.584C41.3601 19.8513 41.6131 19.2933 42.4415 18.685C43.7239 17.7434 45.0472 17.1867 46.4254 16.4155" stroke="#0D0D0D" stroke-width="2" stroke-linecap="round"/>
<path d="M42.7398 22.8298C44.3048 21.4408 45.4434 19.7457 47.034 18.4322C48.6037 17.136 50.4015 16.0445 51.9897 14.7525" stroke="#0D0D0D" stroke-width="2" stroke-linecap="round"/>
<path d="M45.0274 22.2751C46.1439 21.2664 50.0701 18.6468 50.2336 17.1859" stroke="#0D0D0D" stroke-width="2" stroke-linecap="round"/>
<path d="M47.1071 22.7432C49.493 20.1446 52.5328 18.0752 55.7108 16.2969" stroke="#0D0D0D" stroke-width="2" stroke-linecap="round"/>
<path d="M56.441 18.0646C54.6257 19.0803 52.9346 20.2079 51.1212 21.2227C49.9949 21.8529 49.0537 22.7422 47.9672 23.3502" stroke="#0D0D0D" stroke-width="2" stroke-linecap="round"/>
<path d="M54.7621 20.636C53.5621 21.4022 52.681 22.3445 51.4545 23.0308C50.4327 23.6026 49.4683 24.1394 48.542 24.8419" stroke="#0D0D0D" stroke-width="2" stroke-linecap="round"/>
<path d="M52.7901 25.0037C50.15 26.4809 47.0935 27.5035 45.3829 29.8738" stroke="#0D0D0D" stroke-width="2" stroke-linecap="round"/>
<path d="M53.9061 27.4621C52.1502 29.31 49.6536 30.4633 47.7032 32.1116C46.4052 33.2086 45.108 34.1985 43.5989 35.0429" stroke="#0D0D0D" stroke-width="2" stroke-linecap="round"/>
<path d="M54.3258 28.6777C51.9705 30.044 50.8472 32.0829 48.883 33.8086C47.9862 34.5966 47.4037 35.2145 46.796 36.1148C46.5889 36.4217 46.2075 36.5861 46.1763 36.8645" stroke="#0D0D0D" stroke-width="2" stroke-linecap="round"/>
<path d="M53.6456 29.7836C53.7079 30.7463 52.4385 32.045 51.8469 32.9661C50.7854 34.6188 49.3069 36.236 49.1162 37.9395" stroke="#0D0D0D" stroke-width="2" stroke-linecap="round"/>
<path d="M56.9471 30.1123C55.8401 31.0971 55.9336 33.3551 55.4807 34.5595C55.1075 35.5524 54.7198 36.7032 54.155 37.6587" stroke="#0D0D0D" stroke-width="2" stroke-linecap="round"/>
<path d="M59.2837 32.4315C58.1744 33.4077 57.9595 34.65 57.2871 35.7247C56.8776 36.3794 56.0816 37.8522 56.3897 38.4029" stroke="#0D0D0D" stroke-width="2" stroke-linecap="round"/>
<path d="M59.9239 39.1456C60.0481 39.4836 60.4206 37.2176 60.4856 36.7963C60.6182 35.938 60.6276 35.2959 60.2457 34.6135" stroke="#0D0D0D" stroke-width="2" stroke-linecap="round"/>
<path d="M60.5453 36.0778C60.3892 35.147 61.2425 34.0871 60.9691 33.1207" stroke="#0D0D0D" stroke-width="2" stroke-linecap="round"/>
<path d="M62.6899 41.7684C63.6443 39.7991 64.7303 37.7316 64.3628 35.9362" stroke="#0D0D0D" stroke-width="2" stroke-linecap="round"/>
<path d="M64.684 43.0101C66.5431 41.8348 66.7864 39.8478 68.0756 38.3923" stroke="#0D0D0D" stroke-width="2" stroke-linecap="round"/>
<path d="M67.2431 46.6555C68.5131 45.0694 70.9017 42.8551 70.9191 41.1532" stroke="#0D0D0D" stroke-width="2" stroke-linecap="round"/>
<path d="M68.9431 49.6937C70.5267 47.6362 71.52 45.7264 71.7598 43.5842" stroke="#0D0D0D" stroke-width="2" stroke-linecap="round"/>
<path d="M71.3571 52.1509C73.0953 51.1782 72.945 50.3592 73.8273 49.1366" stroke="#0D0D0D" stroke-width="2" stroke-linecap="round"/>
<path d="M72.0684 55.7424C73.2234 54.6049 73.7435 53.0354 74.9004 51.9817" stroke="#0D0D0D" stroke-width="2" stroke-linecap="round"/>
<path d="M72.9425 58.6987C73.8753 58.0094 74.9755 56.5867 75.4128 55.6844" stroke="#0D0D0D" stroke-width="2" stroke-linecap="round"/>
<path d="M73.9287 62.3176C75.2533 60.5785 76.5166 58.7628 77.4068 56.926" stroke="#0D0D0D" stroke-width="2" stroke-linecap="round"/>
<path d="M76.5685 61.9285C75.4904 62.5318 74.5528 63.2378 73.4801 63.838" stroke="#0D0D0D" stroke-width="2" stroke-linecap="round"/>
<path d="M74.6055 65.3844L76.584 64.2773" stroke="#0D0D0D" stroke-width="2" stroke-linecap="round"/>
<path d="M75.6781 68.2295C75.1582 68.5653 74.7212 68.9463 74.1725 69.2533" stroke="#0D0D0D" stroke-width="2" stroke-linecap="round"/>
<path d="M76.2248 72.4571C75.5548 72.832 75.0071 73.0954 74.2896 73.1773" stroke="#0D0D0D" stroke-width="2" stroke-linecap="round"/>
<path d="M75.2171 74.8343C74.7404 75.0658 74.2375 75.2539 73.7549 75.4712" stroke="#0D0D0D" stroke-width="2" stroke-linecap="round"/>
<path d="M75.5508 76.8236C75.0756 77.1721 74.3292 78.0311 73.8835 78.2805C73.5455 78.4696 73.1073 78.5536 72.7376 78.7605" stroke="#0D0D0D" stroke-width="2" stroke-linecap="round"/>
<path d="M73.896 80.8322C73.3559 81.1344 72.8012 81.3445 72.2358 81.5798" stroke="#0D0D0D" stroke-width="2" stroke-linecap="round"/>
<path d="M69.1968 86.363L72.3625 84.5916" stroke="#0D0D0D" stroke-width="2" stroke-linecap="round"/>
<path d="M71.1565 87.0799C69.7094 88.1727 67.2554 89.7738 66.5099 91.312" stroke="#0D0D0D" stroke-width="2" stroke-linecap="round"/>
<path d="M69.9416 90.4798C69.0586 91.6645 67.556 92.7213 66.173 93.4952" stroke="#0D0D0D" stroke-width="2" stroke-linecap="round"/>
<path d="M67.8923 94.7094C66.7187 95.3661 65.6962 96.0024 64.6834 96.8677" stroke="#0D0D0D" stroke-width="2" stroke-linecap="round"/>
<path d="M30.6475 58.7916C33.3548 57.2767 36.4946 55.3675 38.8185 53.4034C40.3487 52.1103 41.9943 50.7772 43.6206 49.578C44.2425 49.1194 44.8856 48.4411 45.0417 47.8358" stroke="#0D0D0D" stroke-width="2" stroke-linecap="round"/>
<path d="M33.918 54.4226L39.8536 51.1013" stroke="#0D0D0D" stroke-width="2" stroke-linecap="round"/>
<path d="M35.2007 52.0728L40.9385 48.8622" stroke="#0D0D0D" stroke-width="2" stroke-linecap="round"/>
<path d="M40.3976 47.8956C39.4415 48.3537 38.4744 48.3088 37.5341 48.7625C36.496 49.2633 35.4478 49.7972 34.394 50.1669" stroke="#0D0D0D" stroke-width="2" stroke-linecap="round"/>
</svg>
