<svg width="104" height="105" viewBox="0 0 104 105" fill="none" xmlns="http://www.w3.org/2000/svg">
<path d="M104 52.3547C104 81.5774 83.5649 104.902 53.2772 104.902C24.2561 104.902 0 82.3072 0 53.0845C0 23.8619 18.6105 -2.38213 51.8175 0.17225C80.8387 0.17225 104 23.1321 104 52.3547Z" fill="#0D0D0D"/>
<path d="M69.294 33.7438C21.8555 63.6666 33.937 91.4 58.7509 102.347C24.0844 105.267 1.78515 77.6167 1.78515 57.4631C-1.49894 31.5544 20.6772 2.73645 40.8308 2.73645C60.9843 2.73645 69.294 13.5903 69.294 33.7438Z" fill="#F7EFEB"/>
<path d="M63.4554 45.421C53.6028 54.5438 46.6694 51.6246 38.6414 62.5719C30.1769 62.5719 38.6413 41.2281 38.6413 31.5544C38.6413 21.8807 58.2752 19.1473 66.7396 19.1473C73.3081 33.014 67.3965 41.7719 63.4554 45.421Z" fill="#F7EFEB"/>
<circle cx="41.6" cy="27.1754" r="8.75789" fill="#0D0D0D"/>
<path d="M34.7948 71.6594C81.853 41.1417 71.2825 13.1744 46.3327 2.54025C80.9598 -0.815239 101.746 26.9401 102 47.0921C105.61 72.9575 81.8221 102.094 61.6701 102.347C41.5182 102.601 35.0485 91.8113 34.7948 71.6594Z" fill="#0D0D0D"/>
<path d="M40.486 59.9096C50.223 50.6634 57.1925 53.4952 65.0821 42.4476C73.5459 42.3411 65.3509 63.7898 65.4727 73.4627C65.5944 83.1356 45.9966 86.1159 37.5328 86.2225C30.7903 72.4396 36.5912 63.608 40.486 59.9096Z" fill="#0D0D0D"/>
<circle cx="60.5754" cy="78.2631" r="8.75789" fill="#F7EFEB"/>
</svg>
