<svg width="165" height="140" viewBox="0 0 165 140" fill="none" xmlns="http://www.w3.org/2000/svg">
<path d="M36.4088 55.3888C28.6441 72.3055 8.61936 81.5694 11.8888 95.6666C3.30668 88.4166 1.57227 79.1527 2.08068 72.3055C3.30668 55.7916 27.4181 40.8888 29.4615 28C38.0434 37.6666 37.4741 53.0679 36.4088 55.3888Z" fill="#0D0D0D"/>
<path d="M32.0574 86.5C28.4339 95.25 19.089 100.042 20.6148 107.333C16.6098 103.583 15.8004 98.7916 16.0376 95.25C16.6098 86.7083 27.8618 79 28.8153 72.3333C32.8203 77.3333 32.5546 85.2995 32.0574 86.5Z" fill="#0D0D0D"/>
<path d="M6.98202 14.1667C11.1232 22.9167 21.803 27.7083 20.0594 35C24.6365 31.25 25.5615 26.4583 25.2903 22.9167C24.6365 14.375 11.7771 6.66667 10.6873 0C6.11021 5 6.41385 12.9662 6.98202 14.1667Z" fill="#0D0D0D"/>
<path d="M55 48.88C55.7067 48.88 56.52 48.98 57.44 49.18C58.3733 49.38 59.0533 49.5933 59.48 49.82V53.7H58.72C57.4933 51.6067 55.8667 50.56 53.84 50.56C52.96 50.56 52.1533 50.82 51.42 51.34C50.7 51.8467 50.1333 52.56 49.72 53.48C49.3067 54.3867 49.1 55.4067 49.1 56.54C49.1 57.8467 49.3 59.04 49.7 60.12C50.1133 61.2 50.7333 62.0667 51.56 62.72C52.4 63.3733 53.4333 63.7 54.66 63.7C55.7933 63.7 57.42 62.8467 59.54 61.14L60.14 62.1L56.46 64.96C55.9667 65.1333 55.4867 65.2467 55.02 65.3C54.5667 65.3667 54.0733 65.4 53.54 65.4C52.14 65.4 50.9 65.06 49.82 64.38C48.74 63.7 47.9 62.7667 47.3 61.58C46.7 60.38 46.4 59.02 46.4 57.5C46.4 55.94 46.8533 54.5 47.76 53.18C48.6667 51.8467 49.7933 50.8 51.14 50.04C52.4867 49.2667 53.7733 48.88 55 48.88ZM74.2863 65H70.4863V62.92L67.9463 65.04C67.6663 65.1467 67.2996 65.2 66.8463 65.2C65.9396 65.2 65.2196 64.9267 64.6863 64.38C64.1529 63.82 63.8863 63.0667 63.8863 62.12V57.34L62.1063 56.3V55.68L65.5263 54H66.2863V61.12C66.2863 61.8533 66.3996 62.3667 66.6263 62.66C66.8529 62.9533 67.2596 63.1 67.8463 63.1C68.2596 63.1 68.6663 63.0267 69.0663 62.88C69.4663 62.72 69.9396 62.4133 70.4863 61.96V57.34L68.7063 56.3V55.68L72.1263 54H72.8863V63.5L74.6863 64.2L74.2863 65ZM81.6706 65H76.0906V64.38L77.8706 62.98V50.68L76.0906 49.44V48.82L79.5106 47.54H80.2706V63.5L82.0706 64.2L81.6706 65ZM89.5734 65.04C89.2668 65.1467 88.8934 65.2 88.4534 65.2C87.3468 65.2 86.5334 64.9133 86.0134 64.34C85.5068 63.7533 85.2534 62.8533 85.2534 61.64V55.8H83.0934V54.98L86.8934 50.56H87.6534V54.98H91.2534V55.8H87.6534V61.88C87.6534 62.96 88.1734 63.5 89.2134 63.5C89.4934 63.5 89.7601 63.44 90.0134 63.32C90.2801 63.2 90.6068 62.9867 90.9934 62.68L91.5934 63.44L89.5734 65.04ZM104.775 65H100.975V62.92L98.4345 65.04C98.1545 65.1467 97.7879 65.2 97.3345 65.2C96.4279 65.2 95.7079 64.9267 95.1745 64.38C94.6412 63.82 94.3745 63.0667 94.3745 62.12V57.34L92.5945 56.3V55.68L96.0145 54H96.7745V61.12C96.7745 61.8533 96.8879 62.3667 97.1145 62.66C97.3412 62.9533 97.7479 63.1 98.3345 63.1C98.7479 63.1 99.1545 63.0267 99.5545 62.88C99.9545 62.72 100.428 62.4133 100.975 61.96V57.34L99.1945 56.3V55.68L102.615 54H103.375V63.5L105.175 64.2L104.775 65ZM114.199 54.2C114.639 54.2 115.026 54.32 115.359 54.56C115.692 54.8 115.952 55.1333 116.139 55.56L114.819 57.22H114.059C114.006 56.8867 113.906 56.6533 113.759 56.52C113.626 56.3733 113.439 56.3 113.199 56.3C112.906 56.3 112.592 56.38 112.259 56.54C111.939 56.6867 111.572 56.9733 111.159 57.4V63.36L113.959 64.22L113.559 65.02H106.979V64.4L108.759 63V57.34L106.979 56.3V55.68L110.399 54L111.019 56.46L113.099 54.34C113.379 54.2333 113.746 54.18 114.199 54.18V54.2ZM127.575 65H123.775V63.26L121.515 65.04C121.248 65.1467 120.915 65.2 120.515 65.2C119.368 65.2 118.535 64.9133 118.015 64.34C117.508 63.7667 117.255 63.08 117.255 62.28C117.255 61.8 117.428 61.3267 117.775 60.86C118.121 60.3933 118.615 59.9533 119.255 59.54H123.775V58.26C123.775 57.3933 123.541 56.78 123.075 56.42C122.621 56.06 121.995 55.88 121.195 55.88C120.368 55.88 119.355 56.38 118.155 57.38L117.555 56.62L120.435 54.34C120.968 54.2333 121.608 54.18 122.355 54.18C123.568 54.18 124.508 54.48 125.175 55.08C125.841 55.6667 126.175 56.5267 126.175 57.66V63.5L127.975 64.2L127.575 65ZM121.155 63.5C121.968 63.5 122.841 63.1267 123.775 62.38V60.36H120.235C120.061 60.5733 119.935 60.7867 119.855 61C119.788 61.2133 119.755 61.4467 119.755 61.7C119.755 62.1933 119.881 62.62 120.135 62.98C120.388 63.3267 120.728 63.5 121.155 63.5ZM134.757 65H129.177V64.38L130.957 62.98V50.68L129.177 49.44V48.82L132.597 47.54H133.357V63.5L135.157 64.2L134.757 65Z" fill="#0D0D0D"/>
<path d="M52.28 90H46.2V89.38L48.08 87.9V75.78L46 75.08L46.4 74.28H52.48V74.9L50.58 76.38V88.48L52.68 89.2L52.28 90ZM67.1519 90.02H63.3519V83.28C63.3519 82.5467 63.2385 82.0333 63.0119 81.74C62.7852 81.4467 62.3785 81.3 61.7919 81.3C61.3519 81.3 60.9119 81.38 60.4719 81.54C60.0452 81.7 59.5385 82.0067 58.9519 82.46V88.52L60.7519 89.22L60.3519 90.02H54.7719V89.4L56.5519 88V82.34L54.7719 81.3V80.68L58.1919 79L58.8519 81.6L61.6919 79.34C61.9719 79.2333 62.3385 79.18 62.7919 79.18C63.6985 79.18 64.4185 79.46 64.9519 80.02C65.4852 80.5667 65.7519 81.3133 65.7519 82.26V88.5L67.5519 89.22L67.1519 90.02ZM77.9069 80.76C78.2802 81.2933 78.4669 81.8933 78.4669 82.56C78.4669 83.1467 78.3002 83.7267 77.9669 84.3C77.6335 84.86 77.1869 85.3533 76.6269 85.78C76.0669 86.2067 75.4535 86.5267 74.7869 86.74C74.4269 87.1 74.2469 87.48 74.2469 87.88C74.2469 88.1067 74.4202 88.32 74.7669 88.52C75.1269 88.7067 75.6535 88.9333 76.3469 89.2C77.2935 89.5733 78.0202 89.9133 78.5269 90.22C79.0469 90.54 79.3069 90.9267 79.3069 91.38C79.3069 91.78 79.0469 92.2933 78.5269 92.92C78.0202 93.5467 77.3869 94.0933 76.6269 94.56C75.8669 95.0267 75.1335 95.26 74.4269 95.26C73.6802 95.26 72.7935 95.1333 71.7669 94.88C70.7535 94.6267 69.9069 94.3733 69.2269 94.12V91.04H69.9869C70.7335 91.96 71.4935 92.66 72.2669 93.14C73.0402 93.62 73.9135 93.86 74.8869 93.86C75.2469 93.86 75.5735 93.7867 75.8669 93.64C76.1735 93.4933 76.4069 93.3067 76.5669 93.08C76.7402 92.8667 76.8269 92.66 76.8269 92.46C76.8269 92.1 76.6202 91.7867 76.2069 91.52C75.7935 91.2667 75.1469 90.9533 74.2669 90.58C73.4269 90.2333 72.8002 89.9333 72.3869 89.68C71.9869 89.4267 71.7869 89.1333 71.7869 88.8C71.7869 88.48 72.0002 88.1533 72.4269 87.82C72.8535 87.4867 73.3602 87.1933 73.9469 86.94C73.7335 86.98 73.5135 87 73.2869 87C72.5802 87 71.9335 86.8467 71.3469 86.54C70.7602 86.22 70.2935 85.8 69.9469 85.28C69.6135 84.76 69.4469 84.1933 69.4469 83.58C69.4469 82.8467 69.7002 82.14 70.2069 81.46C70.7135 80.78 71.3669 80.2333 72.1669 79.82C72.9802 79.3933 73.8069 79.18 74.6469 79.18C75.5802 79.18 76.4002 79.4467 77.1069 79.98H80.2469L80.2669 80.76H77.9069ZM74.4469 85.28C75.0469 85.28 75.5002 85.1333 75.8069 84.84C76.1269 84.5333 76.2869 84.0867 76.2869 83.5C76.2869 82.7 76.0269 82.0533 75.5069 81.56C75.0002 81.0667 74.3269 80.82 73.4869 80.82C72.9002 80.82 72.4469 80.9667 72.1269 81.26C71.8202 81.54 71.6669 81.9733 71.6669 82.56C71.6669 83.3733 71.9202 84.0333 72.4269 84.54C72.9469 85.0333 73.6202 85.28 74.4469 85.28ZM87.1198 90H81.5398V89.38L83.3198 87.98V75.68L81.5398 74.44V73.82L84.9598 72.54H85.7198V88.5L87.5198 89.2L87.1198 90ZM96.1427 90.04C95.6093 90.1467 94.9693 90.2 94.2227 90.2C93.3427 90.2 92.5493 89.9733 91.8427 89.52C91.1493 89.0533 90.6027 88.4267 90.2027 87.64C89.816 86.8533 89.6227 85.9867 89.6227 85.04C89.6227 84.0133 89.936 83.0533 90.5627 82.16C91.1893 81.2533 91.9693 80.5333 92.9027 80C93.8493 79.4533 94.7627 79.18 95.6427 79.18C96.9093 79.18 97.8893 79.68 98.5827 80.68C99.2893 81.68 99.6427 83 99.6427 84.64H92.2427C92.3227 85.7733 92.6293 86.7 93.1627 87.42C93.7093 88.14 94.4493 88.5 95.3827 88.5C96.2493 88.5 97.4827 87.8267 99.0827 86.48L99.6827 87.24L96.1427 90.04ZM94.4827 80.86C93.0427 80.86 92.2893 81.8467 92.2227 83.82H96.9027C96.7827 83.1 96.656 82.5533 96.5227 82.18C96.4027 81.7933 96.1827 81.48 95.8627 81.24C95.556 80.9867 95.096 80.86 94.4827 80.86ZM108.614 87.84C108.614 87.4667 108.408 87.1267 107.994 86.82C107.581 86.5 106.948 86.12 106.094 85.68C105.401 85.32 104.841 85.0067 104.414 84.74C103.988 84.4733 103.621 84.1667 103.314 83.82C103.021 83.46 102.874 83.0733 102.874 82.66C102.874 82.18 103.074 81.6667 103.474 81.12C103.874 80.5733 104.368 80.1133 104.954 79.74C105.541 79.3667 106.088 79.18 106.594 79.18C107.208 79.18 107.914 79.26 108.714 79.42C109.528 79.5667 110.114 79.7333 110.474 79.92V83H109.714C109.288 82.1733 108.794 81.5333 108.234 81.08C107.674 80.6133 107.101 80.38 106.514 80.38C106.101 80.38 105.768 80.4933 105.514 80.72C105.261 80.9333 105.134 81.2067 105.134 81.54C105.134 81.9533 105.348 82.3267 105.774 82.66C106.214 82.98 106.874 83.36 107.754 83.8C108.434 84.1467 108.981 84.4467 109.394 84.7C109.808 84.9533 110.154 85.2533 110.434 85.6C110.728 85.9333 110.874 86.3067 110.874 86.72C110.874 87.2133 110.661 87.7333 110.234 88.28C109.821 88.8133 109.308 89.2667 108.694 89.64C108.094 90.0133 107.541 90.2 107.034 90.2C106.381 90.2 105.601 90.1267 104.694 89.98C103.801 89.82 103.161 89.6467 102.774 89.46V86.38H103.534C104.001 87.2067 104.554 87.8533 105.194 88.32C105.834 88.7733 106.481 89 107.134 89C107.574 89 107.928 88.8867 108.194 88.66C108.474 88.4333 108.614 88.16 108.614 87.84ZM123.766 90H119.966V88.26L117.706 90.04C117.439 90.1467 117.106 90.2 116.706 90.2C115.559 90.2 114.726 89.9133 114.206 89.34C113.699 88.7667 113.446 88.08 113.446 87.28C113.446 86.8 113.619 86.3267 113.966 85.86C114.313 85.3933 114.806 84.9533 115.446 84.54H119.966V83.26C119.966 82.3933 119.733 81.78 119.266 81.42C118.813 81.06 118.186 80.88 117.386 80.88C116.559 80.88 115.546 81.38 114.346 82.38L113.746 81.62L116.626 79.34C117.159 79.2333 117.799 79.18 118.546 79.18C119.759 79.18 120.699 79.48 121.366 80.08C122.033 80.6667 122.366 81.5267 122.366 82.66V88.5L124.166 89.2L123.766 90ZM117.346 88.5C118.159 88.5 119.033 88.1267 119.966 87.38V85.36H116.426C116.253 85.5733 116.126 85.7867 116.046 86C115.979 86.2133 115.946 86.4467 115.946 86.7C115.946 87.1933 116.073 87.62 116.326 87.98C116.579 88.3267 116.919 88.5 117.346 88.5Z" fill="#0D0D0D"/>
<path d="M56.55 133.63L56.955 134.275L54.195 135.97C53.775 136.1 53.365 136.185 52.965 136.225C52.575 136.275 52.155 136.3 51.705 136.3C50.595 136.3 49.61 136.045 48.75 135.535C47.9 135.025 47.235 134.325 46.755 133.435C46.285 132.535 46.05 131.515 46.05 130.375C46.05 129.205 46.405 128.125 47.115 127.135C47.825 126.135 48.71 125.35 49.77 124.78C50.83 124.2 51.84 123.91 52.8 123.91C53.37 123.91 54.035 123.985 54.795 124.135C55.555 124.285 56.11 124.445 56.46 124.615V127.525H55.89C54.89 125.955 53.57 125.17 51.93 125.17C51.21 125.17 50.555 125.365 49.965 125.755C49.375 126.135 48.91 126.67 48.57 127.36C48.24 128.04 48.075 128.805 48.075 129.655C48.075 130.635 48.235 131.53 48.555 132.34C48.885 133.15 49.385 133.8 50.055 134.29C50.725 134.78 51.555 135.025 52.545 135.025C52.985 135.025 53.35 135.01 53.64 134.98C53.93 134.95 54.275 134.855 54.675 134.695V131.155L52.365 130.51L52.665 129.91H57.975V130.375L56.55 131.5V133.63ZM68.3123 136H65.4623V134.44L63.5573 136.03C63.3473 136.11 63.0723 136.15 62.7323 136.15C62.0523 136.15 61.5123 135.945 61.1123 135.535C60.7123 135.115 60.5123 134.55 60.5123 133.84V130.255L59.1773 129.475V129.01L61.7423 127.75H62.3123V133.09C62.3123 133.64 62.3973 134.025 62.5673 134.245C62.7373 134.465 63.0423 134.575 63.4823 134.575C63.7923 134.575 64.0973 134.52 64.3973 134.41C64.6973 134.29 65.0523 134.06 65.4623 133.72V130.255L64.1273 129.475V129.01L66.6923 127.75H67.2623V134.875L68.6123 135.4L68.3123 136ZM77.7806 136H74.9306V134.695L73.2356 136.03C73.0356 136.11 72.7856 136.15 72.4856 136.15C71.6256 136.15 71.0006 135.935 70.6106 135.505C70.2306 135.075 70.0406 134.56 70.0406 133.96C70.0406 133.6 70.1706 133.245 70.4306 132.895C70.6906 132.545 71.0606 132.215 71.5406 131.905H74.9306V130.945C74.9306 130.295 74.7556 129.835 74.4056 129.565C74.0656 129.295 73.5956 129.16 72.9956 129.16C72.3756 129.16 71.6156 129.535 70.7156 130.285L70.2656 129.715L72.4256 128.005C72.8256 127.925 73.3056 127.885 73.8656 127.885C74.7756 127.885 75.4806 128.11 75.9806 128.56C76.4806 129 76.7306 129.645 76.7306 130.495V134.875L78.0806 135.4L77.7806 136ZM72.9656 134.875C73.5756 134.875 74.2306 134.595 74.9306 134.035V132.52H72.2756C72.1456 132.68 72.0506 132.84 71.9906 133C71.9406 133.16 71.9156 133.335 71.9156 133.525C71.9156 133.895 72.0106 134.215 72.2006 134.485C72.3906 134.745 72.6456 134.875 72.9656 134.875ZM83.167 136H78.982V135.535L80.317 134.485V125.26L78.982 124.33V123.865L81.547 122.905H82.117V134.875L83.467 135.4L83.167 136ZM89.9341 136.03C89.5341 136.11 89.0541 136.15 88.4941 136.15C87.8341 136.15 87.2391 135.98 86.7091 135.64C86.1891 135.29 85.7791 134.82 85.4791 134.23C85.1891 133.64 85.0441 132.99 85.0441 132.28C85.0441 131.51 85.2791 130.79 85.7491 130.12C86.2191 129.44 86.8041 128.9 87.5041 128.5C88.2141 128.09 88.8991 127.885 89.5591 127.885C90.5091 127.885 91.2441 128.26 91.7641 129.01C92.2941 129.76 92.5591 130.75 92.5591 131.98H87.0091C87.0691 132.83 87.2991 133.525 87.6991 134.065C88.1091 134.605 88.6641 134.875 89.3641 134.875C90.0141 134.875 90.9391 134.37 92.1391 133.36L92.5891 133.93L89.9341 136.03ZM88.6891 129.145C87.6091 129.145 87.0441 129.885 86.9941 131.365H90.5041C90.4141 130.825 90.3191 130.415 90.2191 130.135C90.1291 129.845 89.9641 129.61 89.7241 129.43C89.4941 129.24 89.1491 129.145 88.6891 129.145ZM101.028 129.07C101.308 129.47 101.448 129.92 101.448 130.42C101.448 130.86 101.323 131.295 101.073 131.725C100.823 132.145 100.488 132.515 100.068 132.835C99.6478 133.155 99.1878 133.395 98.6878 133.555C98.4178 133.825 98.2828 134.11 98.2828 134.41C98.2828 134.58 98.4128 134.74 98.6728 134.89C98.9428 135.03 99.3378 135.2 99.8578 135.4C100.568 135.68 101.113 135.935 101.493 136.165C101.883 136.405 102.078 136.695 102.078 137.035C102.078 137.335 101.883 137.72 101.493 138.19C101.113 138.66 100.638 139.07 100.068 139.42C99.4978 139.77 98.9478 139.945 98.4178 139.945C97.8578 139.945 97.1928 139.85 96.4228 139.66C95.6628 139.47 95.0278 139.28 94.5178 139.09V136.78H95.0878C95.6478 137.47 96.2178 137.995 96.7978 138.355C97.3778 138.715 98.0328 138.895 98.7628 138.895C99.0328 138.895 99.2778 138.84 99.4978 138.73C99.7278 138.62 99.9028 138.48 100.023 138.31C100.153 138.15 100.218 137.995 100.218 137.845C100.218 137.575 100.063 137.34 99.7528 137.14C99.4428 136.95 98.9578 136.715 98.2978 136.435C97.6678 136.175 97.1978 135.95 96.8878 135.76C96.5878 135.57 96.4378 135.35 96.4378 135.1C96.4378 134.86 96.5978 134.615 96.9178 134.365C97.2378 134.115 97.6178 133.895 98.0578 133.705C97.8978 133.735 97.7328 133.75 97.5628 133.75C97.0328 133.75 96.5478 133.635 96.1078 133.405C95.6678 133.165 95.3178 132.85 95.0578 132.46C94.8078 132.07 94.6828 131.645 94.6828 131.185C94.6828 130.635 94.8728 130.105 95.2528 129.595C95.6328 129.085 96.1228 128.675 96.7228 128.365C97.3328 128.045 97.9528 127.885 98.5828 127.885C99.2828 127.885 99.8978 128.085 100.428 128.485H102.783L102.798 129.07H101.028ZM98.4328 132.46C98.8828 132.46 99.2228 132.35 99.4528 132.13C99.6928 131.9 99.8128 131.565 99.8128 131.125C99.8128 130.525 99.6178 130.04 99.2278 129.67C98.8478 129.3 98.3428 129.115 97.7128 129.115C97.2728 129.115 96.9328 129.225 96.6928 129.445C96.4628 129.655 96.3478 129.98 96.3478 130.42C96.3478 131.03 96.5378 131.525 96.9178 131.905C97.3078 132.275 97.8128 132.46 98.4328 132.46ZM112.888 136H110.038V134.44L108.133 136.03C107.923 136.11 107.648 136.15 107.308 136.15C106.628 136.15 106.088 135.945 105.688 135.535C105.288 135.115 105.088 134.55 105.088 133.84V130.255L103.753 129.475V129.01L106.318 127.75H106.888V133.09C106.888 133.64 106.973 134.025 107.143 134.245C107.313 134.465 107.618 134.575 108.058 134.575C108.368 134.575 108.673 134.52 108.973 134.41C109.273 134.29 109.628 134.06 110.038 133.72V130.255L108.703 129.475V129.01L111.268 127.75H111.838V134.875L113.188 135.4L112.888 136ZM122.356 136H119.506V134.695L117.811 136.03C117.611 136.11 117.361 136.15 117.061 136.15C116.201 136.15 115.576 135.935 115.186 135.505C114.806 135.075 114.616 134.56 114.616 133.96C114.616 133.6 114.746 133.245 115.006 132.895C115.266 132.545 115.636 132.215 116.116 131.905H119.506V130.945C119.506 130.295 119.331 129.835 118.981 129.565C118.641 129.295 118.171 129.16 117.571 129.16C116.951 129.16 116.191 129.535 115.291 130.285L114.841 129.715L117.001 128.005C117.401 127.925 117.881 127.885 118.441 127.885C119.351 127.885 120.056 128.11 120.556 128.56C121.056 129 121.306 129.645 121.306 130.495V134.875L122.656 135.4L122.356 136ZM117.541 134.875C118.151 134.875 118.806 134.595 119.506 134.035V132.52H116.851C116.721 132.68 116.626 132.84 116.566 133C116.516 133.16 116.491 133.335 116.491 133.525C116.491 133.895 116.586 134.215 116.776 134.485C116.966 134.745 117.221 134.875 117.541 134.875ZM131.777 128.5L127.982 136L124.862 139.96L124.292 139.51C124.862 138.9 125.292 138.365 125.582 137.905C125.882 137.445 126.092 136.98 126.212 136.51C126.332 136.05 126.392 135.5 126.392 134.86L124.502 130.285L123.107 129.475V129.01L125.672 127.75L126.242 130.015L128.072 134.485L130.187 130.09L128.192 128.635L128.492 128.035H131.777V128.5ZM137.145 127.885C137.555 127.885 138.03 127.945 138.57 128.065C139.12 128.175 139.515 128.3 139.755 128.44V130.75H139.185C138.795 130.25 138.345 129.86 137.835 129.58C137.335 129.29 136.815 129.145 136.275 129.145C135.815 129.145 135.465 129.35 135.225 129.76C134.995 130.17 134.88 130.77 134.88 131.56C134.88 132.5 135.085 133.29 135.495 133.93C135.905 134.56 136.49 134.875 137.25 134.875C137.82 134.875 138.63 134.465 139.68 133.645L140.13 134.215L137.82 136.03C137.42 136.11 136.94 136.15 136.38 136.15C135.72 136.15 135.125 135.98 134.595 135.64C134.075 135.29 133.665 134.82 133.365 134.23C133.075 133.64 132.93 132.99 132.93 132.28C132.93 131.51 133.145 130.785 133.575 130.105C134.015 129.425 134.565 128.885 135.225 128.485C135.885 128.085 136.525 127.885 137.145 127.885ZM150.889 136H148.039V130.945C148.039 130.395 147.954 130.01 147.784 129.79C147.614 129.57 147.309 129.46 146.869 129.46C146.539 129.46 146.209 129.52 145.879 129.64C145.559 129.76 145.179 129.99 144.739 130.33V134.875L146.089 135.4L145.789 136H141.604V135.535L142.939 134.485V125.26L141.604 124.33V123.865L144.169 122.905H144.739V129.625L146.794 128.005C147.004 127.925 147.279 127.885 147.619 127.885C148.299 127.885 148.839 128.095 149.239 128.515C149.639 128.925 149.839 129.485 149.839 130.195V134.875L151.189 135.4L150.889 136ZM161.227 136H158.377V134.44L156.472 136.03C156.262 136.11 155.987 136.15 155.647 136.15C154.967 136.15 154.427 135.945 154.027 135.535C153.627 135.115 153.427 134.55 153.427 133.84V130.255L152.092 129.475V129.01L154.657 127.75H155.227V133.09C155.227 133.64 155.312 134.025 155.482 134.245C155.652 134.465 155.957 134.575 156.397 134.575C156.707 134.575 157.012 134.52 157.312 134.41C157.612 134.29 157.967 134.06 158.377 133.72V130.255L157.042 129.475V129.01L159.607 127.75H160.177V134.875L161.527 135.4L161.227 136ZM159.892 123.265L156.592 125.86L155.992 125.56L157.597 122.62L159.607 122.905L159.892 123.265Z" fill="#0D0D0D"/>
<path d="M2 115L163 115" stroke="#0D0D0D" stroke-width="3" stroke-linecap="round"/>
</svg>
