<svg width="292" height="114" fill="#0D0D0D" xmlns="http://www.w3.org/2000/svg">
<path d="M29.62 63.9412H5.3V61.4612L12.82 55.5412V7.06116L4.5 4.26116L6.1 1.06116H30.42V3.54116L22.82 9.46116V57.8612L31.22 60.7412L29.62 63.9412ZM65.3475 55.3012C65.3475 53.8078 64.5208 52.4478 62.8675 51.2212C61.2142 49.9412 58.6808 48.4212 55.2675 46.6612C52.4942 45.2212 50.2542 43.9678 48.5475 42.9012C46.8408 41.8345 45.3742 40.6078 44.1475 39.2212C42.9742 37.7812 42.3875 36.2345 42.3875 34.5812C42.3875 32.6612 43.1875 30.6078 44.7875 28.4212C46.3875 26.2345 48.3608 24.3945 50.7075 22.9012C53.0542 21.4078 55.2408 20.6612 57.2675 20.6612C59.7208 20.6612 62.5475 20.9812 65.7475 21.6212C69.0008 22.2078 71.3475 22.8745 72.7875 23.6212V35.9412H69.7475C68.0408 32.6345 66.0675 30.0745 63.8275 28.2612C61.5875 26.3945 59.2942 25.4612 56.9475 25.4612C55.2942 25.4612 53.9608 25.9145 52.9475 26.8212C51.9342 27.6745 51.4275 28.7678 51.4275 30.1012C51.4275 31.7545 52.2808 33.2478 53.9875 34.5812C55.7475 35.8612 58.3875 37.3812 61.9075 39.1412C64.6275 40.5278 66.8142 41.7278 68.4675 42.7412C70.1208 43.7545 71.5075 44.9545 72.6275 46.3412C73.8008 47.6745 74.3875 49.1678 74.3875 50.8212C74.3875 52.7945 73.5342 54.8745 71.8275 57.0612C70.1742 59.1945 68.1208 61.0078 65.6675 62.5012C63.2675 63.9945 61.0542 64.7412 59.0275 64.7412C56.4142 64.7412 53.2942 64.4478 49.6675 63.8612C46.0942 63.2212 43.5342 62.5278 41.9875 61.7812V49.4612H45.0275C46.8942 52.7678 49.1075 55.3545 51.6675 57.2212C54.2275 59.0345 56.8142 59.9412 59.4275 59.9412C61.1875 59.9412 62.6008 59.4878 63.6675 58.5812C64.7875 57.6745 65.3475 56.5812 65.3475 55.3012ZM107.075 64.1012C105.848 64.5278 104.355 64.7412 102.595 64.7412C98.1683 64.7412 94.915 63.5945 92.835 61.3012C90.8083 58.9545 89.795 55.3545 89.795 50.5012V27.1412H81.155V23.8612L96.355 6.18116H99.395V23.8612H113.795V27.1412H99.395V51.4612C99.395 55.7812 101.475 57.9412 105.635 57.9412C106.755 57.9412 107.822 57.7012 108.835 57.2212C109.902 56.7412 111.208 55.8878 112.755 54.6612L115.155 57.7012L107.075 64.1012ZM147.258 64.1012C145.125 64.5278 142.565 64.7412 139.578 64.7412C136.058 64.7412 132.885 63.8345 130.058 62.0212C127.285 60.1545 125.098 57.6478 123.498 54.5012C121.951 51.3545 121.178 47.8878 121.178 44.1012C121.178 39.9945 122.431 36.1545 124.938 32.5812C127.445 28.9545 130.565 26.0745 134.298 23.9412C138.085 21.7545 141.738 20.6612 145.258 20.6612C150.325 20.6612 154.245 22.6612 157.018 26.6612C159.845 30.6612 161.258 35.9412 161.258 42.5012H131.658C131.978 47.0345 133.205 50.7412 135.338 53.6212C137.525 56.5012 140.485 57.9412 144.218 57.9412C147.685 57.9412 152.618 55.2478 159.018 49.8612L161.418 52.9012L147.258 64.1012ZM140.618 27.3812C134.858 27.3812 131.845 31.3278 131.578 39.2212H150.298C149.818 36.3412 149.311 34.1545 148.778 32.6612C148.298 31.1145 147.418 29.8612 146.138 28.9012C144.911 27.8878 143.071 27.3812 140.618 27.3812ZM213.064 63.9412H197.864V56.9812L188.824 64.1012C187.758 64.5278 186.424 64.7412 184.824 64.7412C180.238 64.7412 176.904 63.5945 174.824 61.3012C172.798 59.0078 171.784 56.2612 171.784 53.0612C171.784 51.1412 172.478 49.2478 173.864 47.3812C175.251 45.5145 177.224 43.7545 179.784 42.1012H197.864V36.9812C197.864 33.5145 196.931 31.0612 195.064 29.6212C193.251 28.1812 190.744 27.4612 187.544 27.4612C184.238 27.4612 180.184 29.4612 175.384 33.4612L172.984 30.4212L184.504 21.3012C186.638 20.8745 189.198 20.6612 192.184 20.6612C197.038 20.6612 200.798 21.8612 203.464 24.2612C206.131 26.6078 207.464 30.0478 207.464 34.5812V57.9412L214.664 60.7412L213.064 63.9412ZM187.384 57.9412C190.638 57.9412 194.131 56.4478 197.864 53.4612V45.3812H183.704C183.011 46.2345 182.504 47.0878 182.184 47.9412C181.918 48.7945 181.784 49.7278 181.784 50.7412C181.784 52.7145 182.291 54.4212 183.304 55.8612C184.318 57.2478 185.678 57.9412 187.384 57.9412Z" />
<path d="M230.85 51.966C231.93 51.966 232.9 52.316 233.76 53.016C234.64 53.696 235.32 54.626 235.8 55.806C236.3 56.986 236.55 58.286 236.55 59.706C236.55 61.246 236.08 62.696 235.14 64.056C234.2 65.396 233.02 66.476 231.6 67.296C230.2 68.096 228.84 68.496 227.52 68.496C226.7 68.496 225.93 68.316 225.21 67.956C224.51 67.596 223.89 67.086 223.35 66.426L222.06 68.196H220.92V46.716L218.25 44.856V43.926L223.38 42.006H224.52V55.386L228.54 52.206C229.18 52.046 229.95 51.966 230.85 51.966ZM229.26 65.976C231.52 65.976 232.65 64.366 232.65 61.146C232.65 59.286 232.36 57.716 231.78 56.436C231.2 55.156 230.38 54.516 229.32 54.516C228.56 54.516 227.82 54.666 227.1 54.966C226.38 55.266 225.52 55.856 224.52 56.736V62.106C224.52 63.206 224.93 64.126 225.75 64.866C226.57 65.606 227.74 65.976 229.26 65.976ZM256.142 53.196L248.552 68.196L242.312 76.116L241.172 75.216C242.312 73.996 243.172 72.926 243.752 72.006C244.352 71.086 244.772 70.156 245.012 69.216C245.252 68.296 245.372 67.196 245.372 65.916L241.592 56.766L238.802 55.146V54.216L243.932 51.696L245.072 56.226L248.732 65.166L252.962 56.376L248.972 53.466L249.572 52.266H256.142V53.196Z" />
<path d="M89.3 112.941H71.3V112.011L74.12 109.791V91.6112L71 90.5612L71.6 89.3612H89L90.62 88.8212V95.7212L89.72 96.0212L86.15 90.7112H77.87V100.221H82.58L84.77 96.3812H85.7V105.501L84.5 106.101L82.61 101.571H77.87V111.591H86.03L90.02 105.681L90.92 105.981V113.481L89.3 112.941ZM113.704 112.941H108.004V110.781L105.214 113.001C104.574 113.161 103.804 113.241 102.904 113.241C101.584 113.241 100.394 112.901 99.3336 112.221C98.2936 111.521 97.4736 110.581 96.8736 109.401C96.2936 108.221 96.0036 106.921 96.0036 105.501C96.0036 103.961 96.4736 102.521 97.4136 101.181C98.3536 99.8212 99.5236 98.7412 100.924 97.9412C102.344 97.1212 103.714 96.7112 105.034 96.7112C106.134 96.7112 107.134 97.0212 108.034 97.6412V91.4612L105.364 89.6012V88.6712L110.494 86.7512H111.634V110.691L114.304 111.741L113.704 112.941ZM104.434 110.691C105.034 110.691 105.604 110.611 106.144 110.451C106.704 110.271 107.324 109.941 108.004 109.461V102.621C107.884 101.621 107.414 100.811 106.594 100.191C105.794 99.5512 104.694 99.2312 103.294 99.2312C101.034 99.2312 99.9036 100.841 99.9036 104.061C99.9036 105.941 100.294 107.521 101.074 108.801C101.854 110.061 102.974 110.691 104.434 110.691ZM134.406 112.941H128.706V109.821L124.896 113.001C124.476 113.161 123.926 113.241 123.246 113.241C121.886 113.241 120.806 112.831 120.006 112.011C119.206 111.171 118.806 110.041 118.806 108.621V101.451L116.136 99.8912V98.9612L121.266 96.4412H122.406V107.121C122.406 108.221 122.576 108.991 122.916 109.431C123.256 109.871 123.866 110.091 124.746 110.091C125.366 110.091 125.976 109.981 126.576 109.761C127.176 109.521 127.886 109.061 128.706 108.381V101.451L126.036 99.8912V98.9612L131.166 96.4412H132.306V110.691L135.006 111.741L134.406 112.941ZM146.593 96.7112C147.413 96.7112 148.363 96.8312 149.443 97.0712C150.543 97.2912 151.333 97.5412 151.813 97.8212V102.441H150.673C149.893 101.441 148.993 100.661 147.973 100.101C146.973 99.5212 145.933 99.2312 144.853 99.2312C143.933 99.2312 143.233 99.6412 142.753 100.461C142.293 101.281 142.063 102.481 142.063 104.061C142.063 105.941 142.473 107.521 143.293 108.801C144.113 110.061 145.283 110.691 146.803 110.691C147.943 110.691 149.563 109.871 151.663 108.231L152.563 109.371L147.943 113.001C147.143 113.161 146.183 113.241 145.063 113.241C143.743 113.241 142.553 112.901 141.493 112.221C140.453 111.521 139.633 110.581 139.033 109.401C138.453 108.221 138.163 106.921 138.163 105.501C138.163 103.961 138.593 102.511 139.453 101.151C140.333 99.7912 141.433 98.7112 142.753 97.9112C144.073 97.1112 145.353 96.7112 146.593 96.7112ZM171.741 112.941H166.041V110.331L162.651 113.001C162.251 113.161 161.751 113.241 161.151 113.241C159.431 113.241 158.181 112.811 157.401 111.951C156.641 111.091 156.261 110.061 156.261 108.861C156.261 108.141 156.521 107.431 157.041 106.731C157.561 106.031 158.301 105.371 159.261 104.751H166.041V102.831C166.041 101.531 165.691 100.611 164.991 100.071C164.311 99.5312 163.371 99.2612 162.171 99.2612C160.931 99.2612 159.411 100.011 157.611 101.511L156.711 100.371L161.031 96.9512C161.831 96.7912 162.791 96.7112 163.911 96.7112C165.731 96.7112 167.141 97.1612 168.141 98.0612C169.141 98.9412 169.641 100.231 169.641 101.931V110.691L172.341 111.741L171.741 112.941ZM162.111 110.691C163.331 110.691 164.641 110.131 166.041 109.011V105.981H160.731C160.471 106.301 160.281 106.621 160.161 106.941C160.061 107.261 160.011 107.611 160.011 107.991C160.011 108.731 160.201 109.371 160.581 109.911C160.961 110.431 161.471 110.691 162.111 110.691ZM183.624 96.7112C184.444 96.7112 185.394 96.8312 186.474 97.0712C187.574 97.2912 188.364 97.5412 188.844 97.8212V102.441H187.704C186.924 101.441 186.024 100.661 185.004 100.101C184.004 99.5212 182.964 99.2312 181.884 99.2312C180.964 99.2312 180.264 99.6412 179.784 100.461C179.324 101.281 179.094 102.481 179.094 104.061C179.094 105.941 179.504 107.521 180.324 108.801C181.144 110.061 182.314 110.691 183.834 110.691C184.974 110.691 186.594 109.871 188.694 108.231L189.594 109.371L184.974 113.001C184.174 113.161 183.214 113.241 182.094 113.241C180.774 113.241 179.584 112.901 178.524 112.221C177.484 111.521 176.664 110.581 176.064 109.401C175.484 108.221 175.194 106.921 175.194 105.501C175.194 103.961 175.624 102.511 176.484 101.151C177.364 99.7912 178.464 98.7112 179.784 97.9112C181.104 97.1112 182.384 96.7112 183.624 96.7112ZM201.512 112.941H193.142V112.011L195.812 109.911V101.151L193.142 99.2912V98.3612L198.272 96.4412H199.412V110.691L202.112 111.741L201.512 112.941ZM197.492 87.4412C198.092 87.4412 198.582 87.6612 198.962 88.1012C199.362 88.5412 199.562 89.0912 199.562 89.7512C199.562 90.2112 199.422 90.6512 199.142 91.0712C198.862 91.4712 198.512 91.7912 198.092 92.0312C197.672 92.2712 197.262 92.3912 196.862 92.3912C196.262 92.3912 195.762 92.1712 195.362 91.7312C194.982 91.2912 194.792 90.7412 194.792 90.0812C194.792 89.6212 194.932 89.1912 195.212 88.7912C195.492 88.3712 195.842 88.0412 196.262 87.8012C196.682 87.5612 197.092 87.4412 197.492 87.4412ZM214.282 96.7112C215.602 96.7112 216.782 97.0612 217.822 97.7612C218.882 98.4412 219.702 99.3712 220.282 100.551C220.882 101.731 221.182 103.031 221.182 104.451C221.182 105.991 220.712 107.441 219.772 108.801C218.832 110.141 217.652 111.221 216.232 112.041C214.832 112.841 213.472 113.241 212.152 113.241C210.832 113.241 209.642 112.901 208.582 112.221C207.542 111.521 206.722 110.581 206.122 109.401C205.542 108.221 205.252 106.921 205.252 105.501C205.252 103.961 205.722 102.521 206.662 101.181C207.602 99.8212 208.772 98.7412 210.172 97.9412C211.592 97.1212 212.962 96.7112 214.282 96.7112ZM212.542 99.2312C210.282 99.2312 209.152 100.841 209.152 104.061C209.152 105.961 209.562 107.551 210.382 108.831C211.202 110.091 212.372 110.721 213.892 110.721C216.152 110.721 217.282 109.101 217.282 105.861C217.282 103.981 216.872 102.411 216.052 101.151C215.232 99.8712 214.062 99.2312 212.542 99.2312ZM219.232 87.4712L212.632 92.6612L211.432 92.0612L214.642 86.1812L218.662 86.7512L219.232 87.4712ZM243.499 112.971H237.799V102.861C237.799 101.761 237.629 100.991 237.289 100.551C236.949 100.111 236.339 99.8912 235.459 99.8912C234.799 99.8912 234.139 100.011 233.479 100.251C232.839 100.491 232.079 100.951 231.199 101.631V110.721L233.899 111.771L233.299 112.971H224.929V112.041L227.599 109.941V101.451L224.929 99.8912V98.9612L230.059 96.4412L231.049 100.341L235.309 96.9512C235.729 96.7912 236.279 96.7112 236.959 96.7112C238.319 96.7112 239.399 97.1312 240.199 97.9712C240.999 98.7912 241.399 99.9112 241.399 101.331V110.691L244.099 111.771L243.499 112.971ZM264.141 112.941H255.021V112.011L257.841 109.791V91.6112L254.721 90.5612L255.321 89.3612H264.441V90.2912L261.591 92.5112V110.661L264.741 111.741L264.141 112.941ZM289.089 96.3212L288.189 96.6212L284.199 90.7112H280.539V110.661L283.689 111.741L283.089 112.941H273.969V112.011L276.789 109.791V90.7112H273.219L269.229 96.6212L268.329 96.3212V88.8212L269.949 89.3612H287.469L289.089 88.8212V96.3212Z" />
<path d="M55.5 79.9412L279.5 79.9411" stroke="#0D0D0D" stroke-width="4" stroke-linecap="round"/>
</svg>

