<svg width="25" height="25" viewBox="0 0 25 25" fill="none" xmlns="http://www.w3.org/2000/svg">
<circle cx="12.5" cy="12.5" r="12.5" fill="#0D0D0D"/>
<path d="M5.85175 15.1233C5.62518 14.9514 5.43768 14.7366 5.28925 14.4788C5.14862 14.2209 5.03534 13.9475 4.9494 13.6584C4.87128 13.3694 4.81659 13.0725 4.78534 12.7678C4.7619 12.4553 4.75409 12.1584 4.7619 11.8772C4.83221 11.6663 4.91815 11.4749 5.01971 11.303C5.12128 11.1233 5.23456 10.9553 5.35956 10.7991C5.48456 10.635 5.61346 10.4827 5.74628 10.342C5.8869 10.1936 6.02362 10.0452 6.15643 9.89673C6.20331 9.89673 6.24628 9.90845 6.28534 9.93188C6.31659 9.84595 6.36346 9.77173 6.42596 9.70923C6.48846 9.64673 6.55487 9.59204 6.62518 9.54517C6.6955 9.49048 6.76581 9.4397 6.83612 9.39282C6.90643 9.33813 6.96503 9.27563 7.0119 9.20532C7.20721 9.15845 7.37909 9.09204 7.52753 9.0061C7.68378 8.92017 7.83221 8.82642 7.97284 8.72485C8.11346 8.62329 8.258 8.52954 8.40643 8.4436C8.55487 8.35767 8.72675 8.29126 8.92206 8.24438C8.99237 8.16626 9.07831 8.09985 9.17987 8.04517C9.28925 7.99048 9.39471 7.9397 9.49628 7.89282C9.60565 7.84595 9.70721 7.79517 9.80096 7.74048C9.90253 7.68579 9.98456 7.61157 10.0471 7.51782C10.0939 7.58032 10.1603 7.60376 10.2463 7.58813C10.3322 7.5647 10.4103 7.54126 10.4807 7.51782C10.5275 7.51001 10.5666 7.51782 10.5978 7.54126C10.6291 7.5647 10.6564 7.59204 10.6799 7.62329C10.7111 7.64673 10.7346 7.66235 10.7502 7.67017C10.7736 7.67798 10.7971 7.65454 10.8205 7.59985C10.883 7.60767 10.8986 7.63501 10.8674 7.68188C10.8439 7.72876 10.8283 7.76001 10.8205 7.77563C10.8986 7.76001 10.9611 7.77563 11.008 7.82251C11.0627 7.86157 11.1447 7.88892 11.2541 7.90454C11.2932 7.9436 11.3049 7.97485 11.2892 7.99829C11.2736 8.02173 11.2619 8.06079 11.2541 8.11548C11.5353 8.20142 11.715 8.33813 11.7932 8.52563C11.8713 8.70532 11.8791 8.89673 11.8166 9.09985C11.7541 9.29517 11.6369 9.47876 11.465 9.65063C11.301 9.8147 11.1174 9.92407 10.9142 9.97876C10.6721 10.0413 10.4455 10.1038 10.2346 10.1663C10.0314 10.2288 9.83221 10.2991 9.6369 10.3772C9.4494 10.4553 9.26971 10.5491 9.09784 10.6584C8.93378 10.76 8.78925 10.8811 8.66425 11.0217C8.4455 11.0842 8.24628 11.1702 8.06659 11.2795C7.89471 11.3889 7.73065 11.51 7.5744 11.6428C7.42596 11.7756 7.28143 11.9163 7.14081 12.0647C7.00018 12.2053 6.85956 12.3459 6.71893 12.4866C6.71893 12.6194 6.6955 12.7209 6.64862 12.7913C6.60175 12.8616 6.55096 12.9319 6.49628 13.0022C6.5119 13.1506 6.54315 13.2795 6.59003 13.3889C6.64471 13.4905 6.6994 13.5959 6.75409 13.7053C7.37909 13.8928 8.03925 14.01 8.73456 14.0569C9.43768 14.0959 10.133 14.1194 10.8205 14.1272C10.8908 14.2209 10.9689 14.3108 11.0549 14.3967C11.1486 14.4749 11.2307 14.5569 11.301 14.6428C11.3791 14.7288 11.4377 14.8303 11.4767 14.9475C11.5236 15.0569 11.5353 15.1897 11.5119 15.3459C11.3791 15.4788 11.2346 15.6077 11.0783 15.7327C10.9221 15.8499 10.7658 15.967 10.6096 16.0842C10.5392 16.092 10.4533 16.092 10.3517 16.0842C10.258 16.0764 10.1564 16.0725 10.0471 16.0725C9.9455 16.0725 9.84003 16.0803 9.73065 16.0959C9.62909 16.1038 9.53143 16.1272 9.43768 16.1663C8.9455 16.1506 8.44159 16.092 7.92596 15.9905C7.41034 15.8811 6.93378 15.7522 6.49628 15.6038C6.41034 15.5022 6.3205 15.4084 6.22675 15.3225C6.133 15.2288 6.008 15.1624 5.85175 15.1233ZM15.883 14.0803C15.8752 14.1897 15.8478 14.2952 15.801 14.3967C15.7619 14.4905 15.7111 14.5842 15.6486 14.678C15.5861 14.7639 15.5158 14.8499 15.4377 14.9358C15.3674 15.0139 15.2971 15.0842 15.2267 15.1467C15.2502 15.2483 15.2502 15.3264 15.2267 15.3811C15.2111 15.428 15.2072 15.5022 15.215 15.6038C15.0978 15.9163 14.9182 16.1233 14.676 16.2249C14.4416 16.3342 14.2189 16.3147 14.008 16.1663C13.9221 16.1038 13.8478 16.0256 13.7853 15.9319C13.7307 15.8303 13.6525 15.7678 13.551 15.7444C13.5744 15.6116 13.5627 15.4788 13.5158 15.3459C13.4689 15.2131 13.4182 15.1428 13.3635 15.135C13.34 14.9709 13.3049 14.7952 13.258 14.6077C13.2111 14.4202 13.1682 14.2327 13.1291 14.0452C13.09 13.8499 13.0549 13.6624 13.0236 13.4827C13.0002 13.2952 12.9924 13.1233 13.0002 12.967C13.008 12.8889 12.9924 12.8186 12.9533 12.7561C12.9221 12.6936 12.8986 12.6194 12.883 12.5334C12.8517 12.3538 12.84 12.1663 12.8478 11.9709C12.8635 11.7678 12.8713 11.5764 12.8713 11.3967C12.8713 11.2249 12.8596 11.0413 12.8361 10.8459C12.8205 10.6428 12.8049 10.4514 12.7892 10.2717C12.7736 10.0842 12.7658 9.91626 12.7658 9.76782C12.7658 9.61157 12.7853 9.49048 12.8244 9.40454C12.8713 9.31079 12.9338 9.23657 13.0119 9.18188C13.0978 9.11938 13.176 9.05298 13.2463 8.98267C13.4182 8.99829 13.5549 9.0686 13.6564 9.1936C13.758 9.3186 13.7971 9.43579 13.7736 9.54517C13.9377 9.64673 14.0666 9.77954 14.1603 9.9436C14.2619 10.0999 14.34 10.2795 14.3947 10.4827C14.4572 10.678 14.5002 10.8889 14.5236 11.1155C14.5471 11.3342 14.5666 11.553 14.5822 11.7717C14.5978 11.9827 14.6135 12.1858 14.6291 12.3811C14.6447 12.5764 14.676 12.7444 14.7228 12.885C15.0119 12.4709 15.2541 12.1038 15.4494 11.7834C15.6447 11.4553 15.8439 11.1428 16.0471 10.8459C16.2502 10.5491 16.4767 10.2483 16.7267 9.9436C16.9767 9.63892 17.301 9.29517 17.6994 8.91235C17.7775 8.92017 17.84 8.93579 17.8869 8.95923C17.9416 8.98267 17.9885 9.0022 18.0275 9.01782C18.0666 9.03345 18.1135 9.04907 18.1682 9.0647C18.2228 9.07251 18.2971 9.0686 18.3908 9.05298C18.4221 9.1311 18.4455 9.1897 18.4611 9.22876C18.4767 9.26001 18.4885 9.29517 18.4963 9.33423C18.5119 9.36548 18.5275 9.40845 18.5432 9.46313C18.5666 9.51782 18.6017 9.59595 18.6486 9.69751C18.6721 9.72095 18.6799 9.7522 18.6721 9.79126C18.6642 9.83032 18.6564 9.86938 18.6486 9.90845C18.6486 9.9397 18.6486 9.96313 18.6486 9.97876C18.6486 9.99438 18.6682 9.99438 18.7072 9.97876C18.6838 10.0881 18.6408 10.1897 18.5783 10.2834C18.5236 10.3694 18.5002 10.4749 18.508 10.5999C18.3283 10.8342 18.1291 11.0764 17.9103 11.3264C17.6994 11.5764 17.4846 11.8342 17.2658 12.0999C17.0549 12.3655 16.8517 12.6467 16.6564 12.9436C16.4611 13.2327 16.2932 13.5374 16.1525 13.8577C16.1135 13.8577 16.0822 13.8694 16.0588 13.8928C16.0432 13.9163 16.0275 13.9436 16.0119 13.9749C15.9963 13.9983 15.9767 14.0217 15.9533 14.0452C15.9377 14.0686 15.9142 14.0803 15.883 14.0803Z" fill="#F7EFEB"/>
</svg>
