<svg width="25" height="25" viewBox="0 0 25 25" fill="none" xmlns="http://www.w3.org/2000/svg">
<circle cx="12.5" cy="12.5" r="12.5" fill="#0D0D0D"/>
<g clip-path="url(#clip0_253_590)">
<path d="M12.5 2C6.69875 2 2 6.69875 2 12.5C2 17.1462 5.00562 21.0706 9.17937 22.4619C9.70437 22.5538 9.90125 22.2388 9.90125 21.9631C9.90125 21.7138 9.88813 20.8869 9.88813 20.0075C7.25 20.4931 6.5675 19.3644 6.3575 18.7737C6.23937 18.4719 5.7275 17.54 5.28125 17.2906C4.91375 17.0937 4.38875 16.6081 5.26813 16.595C6.095 16.5819 6.68563 17.3562 6.8825 17.6712C7.8275 19.2594 9.33688 18.8131 9.94063 18.5375C10.0325 17.855 10.3081 17.3956 10.61 17.1331C8.27375 16.8706 5.8325 15.965 5.8325 11.9487C5.8325 10.8069 6.23938 9.86187 6.90875 9.12687C6.80375 8.86437 6.43625 7.78812 7.01375 6.34437C7.01375 6.34437 7.89313 6.06875 9.90125 7.42063C10.7412 7.18438 11.6338 7.06625 12.5263 7.06625C13.4188 7.06625 14.3113 7.18438 15.1513 7.42063C17.1594 6.05563 18.0388 6.34437 18.0388 6.34437C18.6163 7.78812 18.2488 8.86437 18.1438 9.12687C18.8131 9.86187 19.22 10.7937 19.22 11.9487C19.22 15.9781 16.7656 16.8706 14.4294 17.1331C14.81 17.4612 15.1381 18.0913 15.1381 19.0756C15.1381 20.48 15.125 21.6088 15.125 21.9631C15.125 22.2388 15.3219 22.5669 15.8469 22.4619C17.9316 21.7587 19.7433 20.4192 21.0265 18.632C22.3098 16.8449 23 14.7002 23 12.5C23 6.69875 18.3013 2 12.5 2Z" fill="#F7EFEB"/>
</g>
<defs>
<clipPath id="clip0_253_590">
<rect width="21" height="21" fill="white" transform="translate(2 2)"/>
</clipPath>
</defs>
</svg>
