<svg width="25" height="25" viewBox="0 0 25 25" fill="none" xmlns="http://www.w3.org/2000/svg">
<circle cx="12.5" cy="12.5" r="12.5" fill="#0D0D0D"/>
<g clip-path="url(#clip0_253_594)">
<rect x="6" y="6" width="13" height="13" fill="#F7EFEB"/>
<path d="M5.01791 4.74569C5.01791 4.06504 4.85231 4 5.52825 4H19.0628C19.7387 4 20.5157 4.06504 20.5157 4.74569L21 18.5C21 19.1806 20.4652 20 19.7892 20H5.52825C4.85231 20 5.01791 19.9306 5.01791 19.25L5.01791 4.74569ZM9.45269 17.9156V10.1468H6.95201V17.9156H9.45269ZM8.20287 9.08547C9.07462 9.08547 9.61725 8.48977 9.61725 7.74354C9.60163 6.98117 9.07566 6.4016 8.21954 6.4016C7.36341 6.4016 6.80411 6.98225 6.80411 7.74354C6.80411 8.48977 7.34674 9.08547 8.18621 9.08547H8.20287ZM13.3146 17.9156V13.5769C13.3146 13.3446 13.3313 13.1124 13.398 12.9468C13.5781 12.4833 13.9895 12.0027 14.6811 12.0027C15.5862 12.0027 15.9476 12.7145 15.9476 13.7597V17.9156H18.4483V13.4597C18.4483 11.0726 17.2151 9.96289 15.5695 9.96289C14.2426 9.96289 13.6479 10.7156 13.3146 11.2457V11.2726H13.298L13.3146 11.2457V10.1468H10.815C10.8462 10.8758 10.815 17.9156 10.815 17.9156H13.3146Z" fill="#0D0D0D"/>
</g>
<defs>
<clipPath id="clip0_253_594">
<rect width="17.2043" height="17.2043" fill="white" transform="translate(3.76343 3.76343)"/>
</clipPath>
</defs>
</svg>
