<svg width="25" height="25" viewBox="0 0 25 25" fill="none" xmlns="http://www.w3.org/2000/svg">
<circle cx="12.5" cy="12.5" r="12.5" fill="#0D0D0D"/>
<mask id="mask0_253_585" style="mask-type:alpha" maskUnits="userSpaceOnUse" x="4" y="3" width="18" height="18">
<rect x="4.03235" y="3.76318" width="17.2043" height="17.2043" fill="#F7EFEB"/>
</mask>
<g mask="url(#mask0_253_585)">
<path d="M6.89976 18.1001C6.50549 18.1001 6.16798 17.9598 5.88721 17.679C5.60645 17.3982 5.46606 17.0607 5.46606 16.6665V8.06431C5.46606 7.67004 5.60645 7.33253 5.88721 7.05176C6.16798 6.771 6.50549 6.63062 6.89976 6.63062H18.3693C18.7636 6.63062 19.1011 6.771 19.3818 7.05176C19.6626 7.33253 19.803 7.67004 19.803 8.06431V16.6665C19.803 17.0607 19.6626 17.3982 19.3818 17.679C19.1011 17.9598 18.7636 18.1001 18.3693 18.1001H6.89976ZM12.6345 13.0822L6.89976 9.498V16.6665H18.3693V9.498L12.6345 13.0822ZM12.6345 11.6485L18.3693 8.06431H6.89976L12.6345 11.6485ZM6.89976 9.498V8.06431V16.6665V9.498Z" fill="#F7EFEB"/>
</g>
</svg>
