<svg width="3082" height="924" viewBox="0 0 3082 924" fill="#000000" xmlns="http://www.w3.org/2000/svg">
<path d="M1098.09 491.84C1098.09 517.647 830.795 638.094 771.927 638.094C713.059 638.094 711.171 655.023 711.171 629.216C819.892 601.648 839.078 608.656 910.493 568.004C1006.42 521.278 1089.56 461.935 1098.09 491.84Z" />
<path d="M1424.56 384.35C1423.87 388.42 1341.46 428.046 1268.17 452.092C1272.6 464.216 1035.52 529.621 1076.69 497.282C982.946 514.525 1228.14 428.697 1241.49 430.965C1346.52 379.141 1425.26 380.279 1424.56 384.35Z" />
<path d="M1958.64 282.678C1929.67 300.504 1770.75 319.473 1621.59 363.796C1563.55 353.934 1525.25 383.554 1529.57 358.112C1576.95 352.893 1584.78 351.379 1616.74 347.805C1722.2 331.602 1962.97 257.236 1958.64 282.678Z" />
<path d="M2306.95 205.366C2319.31 221.686 2290.9 210.697 2141.74 255.021C2072.4 262.197 1855.35 330.639 1859.67 305.198C1891.14 285.425 2186.46 220.911 2218.42 217.337C2200.04 223.694 2311.27 179.925 2306.95 205.366Z" />
<path d="M2419.8 737.155C2458.17 745.565 2290.01 769.863 2231.14 769.863C2172.27 769.863 2035.01 778.741 2035.01 758.181C2035.01 747.902 2186.13 753.976 2244.99 753.976C2303.86 753.976 2372.9 737.155 2419.8 737.155Z" />
<path d="M3081.72 692.298C3012.44 699.306 3019.08 699.306 2960.21 699.306C2846.16 696.709 2053.13 788.662 2053.13 762.855C2283.37 756.313 2411.27 730.613 2547.71 710.988C2594.61 719.866 3036.95 675.476 3081.72 692.298Z" />
<path d="M140.222 612.5C140.222 623.339 117.722 631.086 40.7232 631.086C-73.7785 631.086 100.222 593.5 0.221504 598C0.221504 587.161 56.1348 587 93.2215 587C130.308 587 140.222 601.661 140.222 612.5Z" />
<path d="M709.039 652.113C529.969 625.952 86.5427 629.216 64.173 629.216C41.8032 629.216 103.611 597.129 103.611 588.097C103.611 579.065 565.144 604.451 719.698 625.952C742.068 625.952 709.039 643.08 709.039 652.113Z" />
<path d="M1273.96 737.155C920.086 702.11 810.299 656.318 705.842 650.243C683.472 650.243 705.841 634.978 705.841 625.945C705.841 616.913 862.528 660.991 997.897 686.69C1020.27 686.69 1273.96 728.123 1273.96 737.155Z" />
<path d="M1118.34 706.581C1337.92 725.473 1152.45 721.085 1595.86 754.911C1618.23 754.911 1553.23 761.453 1553.23 761.453C1386.95 751.355 1451.97 756.313 1337.92 746.967C1315.55 746.967 1094.89 714.259 1118.34 706.581Z" />
<path d="M1558.56 751.173C1546.83 763.789 1658.75 739.958 2199.16 756.313C2221.53 756.313 2048.87 766.592 2048.87 766.592C1882.59 756.495 1639.57 768.462 1525.52 759.116C1503.15 759.116 1535.11 758.851 1558.56 751.173Z" />
<path d="M1530.53 371.547C1503.23 385.866 1435.18 391.838 1401.86 397.076C1343.82 387.214 1419.58 388.238 1408.96 380.747C1458.25 370.639 1488.68 382.445 1500.49 357.437C1605.24 358.175 1552.8 367.747 1530.53 371.547Z" />
<path d="M2453.72 777.057C2453.72 803.697 2458.86 788.277 2407.92 785.006C2391.1 778.003 2372.41 784.072 2312.6 752.298C2312.6 739.394 2341.13 744.821 2353.25 744.821C2328.49 758.839 2368.21 766.783 2453.72 777.057Z" />
<path d="M2590.68 627.311C2600.5 645.534 2593.33 661.421 2585.08 661.421C2576.82 661.421 2571.52 652.076 2571.52 627.311C2571.52 618.537 2570.74 611.424 2579 611.424C2587.26 611.424 2590.68 618.537 2590.68 627.311Z" />
<path d="M2615.45 645.534C2614.51 654.412 2597.36 662.823 2593.49 662.823C2589.61 662.823 2567.79 660.487 2583.21 650.674C2579.94 643.198 2598.16 645.534 2608.44 640.395C2612.31 640.395 2615.45 642.696 2615.45 645.534Z" />
<path d="M2574.33 682.915C2574.33 688.593 2553.16 721.698 2547.23 721.698C2541.15 710.017 2564.98 685.322 2564.98 679.645C2564.98 673.967 2589.28 651.609 2586.48 659.085C2592.41 659.085 2601.9 655.814 2574.33 682.915Z" />
<path d="M2586.48 660.487C2586.48 662.81 2584.59 664.692 2582.27 664.692C2579.95 664.692 2578.07 670.3 2578.07 660.487C2572.93 646.936 2572.94 640.395 2575.26 640.395C2577.59 640.395 2586.48 658.164 2586.48 660.487Z" />
<path d="M2619.19 606.285C2640.21 615.163 2619.32 645.068 2615.45 645.068C2573.86 659.085 2582.27 616.279 2582.27 611.892C2584.14 589.93 2597.22 593.668 2610.31 593.668C2614.18 593.668 2619.19 601.898 2619.19 606.285Z" />
<path d="M1814.74 801.191C1797.03 811.905 1780.8 805.549 1780.39 797.302C1779.98 789.054 1789.04 783.299 1813.78 782.057C1822.54 781.617 1829.61 780.48 1830.02 788.728C1830.43 796.975 1823.5 800.751 1814.74 801.191Z" />
<path d="M1797.78 826.839C1788.87 826.351 1779.61 809.638 1779.41 805.772C1779.22 801.906 1780.46 779.988 1791.03 794.896C1798.33 791.254 1796.91 809.572 1802.56 819.581C1802.76 823.447 1800.61 826.696 1797.78 826.839Z" />
<path d="M1758.38 787.646C1752.71 787.93 1718.59 768.451 1718.29 762.523C1729.65 755.871 1755.51 778.433 1761.18 778.148C1766.85 777.863 1790.4 801.01 1782.79 798.584C1783.09 804.512 1786.83 813.821 1758.38 787.646Z" />
<path d="M1781.39 798.655C1779.07 798.771 1777.1 796.985 1776.98 794.666C1776.87 792.346 1771.17 790.747 1780.97 790.255C1794.25 784.441 1800.78 784.127 1800.9 786.447C1801.01 788.767 1783.71 798.538 1781.39 798.655Z" />
<path d="M1837.17 828.604C1829.35 850.05 1798.44 830.681 1798.25 826.815C1782.16 785.984 1825.33 792.238 1829.72 792.018C1851.74 792.783 1848.67 806.038 1849.32 819.104C1849.52 822.971 1841.55 828.384 1837.17 828.604Z" />
<path d="M1629.56 816.954C1608.87 816.601 1598.51 802.584 1602.55 795.381C1606.59 788.178 1625.47 794.398 1637.68 804.043C1651.32 814.826 1655.15 823.3 1651.11 830.504C1647.08 837.707 1637.21 821.246 1629.56 816.954Z" />
<path d="M1601.55 829.643C1594.27 824.486 1595.32 805.408 1597.21 802.032C1599.11 798.655 1611.82 780.758 1612.84 799.007C1620.96 799.81 1610.01 814.563 1609.46 826.043C1607.57 829.42 1604.03 831.031 1601.55 829.643Z" />
<path d="M1602.68 797.061C1600.65 795.925 1599.93 793.362 1601.07 791.336C1602.2 789.31 1598.23 784.926 1606.79 789.725C1621.13 791.869 1626.82 795.08 1625.69 797.106C1624.55 799.132 1604.7 798.197 1602.68 797.061Z" />
<path d="M1633.96 852.099C1615.93 866.098 1600.07 833.247 1601.96 829.871C1610.07 786.742 1643.3 815.013 1647.12 817.159C1665.36 829.53 1655.7 839.113 1649.31 850.525C1647.41 853.902 1637.79 854.245 1633.96 852.099Z" />
<path d="M1581.76 783.908C1576.09 784.192 1541.96 764.713 1541.66 758.785C1553.03 752.133 1578.88 774.695 1584.55 774.41C1590.23 774.125 1613.77 797.272 1606.17 794.846C1606.46 800.774 1610.21 810.083 1581.76 783.908Z" />
<path d="M2383.18 33.8839C2392.99 52.1072 2385.83 67.9942 2377.57 67.9942C2369.31 67.9942 2364.02 58.6489 2364.02 33.8839C2364.02 25.1097 2363.24 17.9968 2371.5 17.9968C2379.76 17.9968 2383.18 25.1097 2383.18 33.8839Z" />
<path d="M2407.94 52.1072C2407.01 60.9853 2389.85 69.396 2385.98 69.396C2382.11 69.396 2360.28 67.0597 2375.7 57.2471C2372.43 49.7709 2390.66 52.1072 2400.94 46.9673C2404.81 46.9673 2407.94 49.2685 2407.94 52.1072Z" />
<path d="M2378.97 67.0597C2378.97 69.3823 2377.09 71.2651 2374.77 71.2651C2372.45 71.2651 2370.56 76.8723 2370.56 67.0597C2365.42 53.509 2365.44 46.9673 2367.76 46.9673C2370.08 46.9673 2378.97 64.7371 2378.97 67.0597Z" />
<path d="M2411.68 12.8574C2432.71 21.7354 2411.82 51.6404 2407.94 51.6404C2366.36 65.6579 2374.77 22.8516 2374.77 18.4645C2376.64 -3.49742 2389.72 0.24117 2402.8 0.241183C2406.68 0.241183 2411.68 8.47027 2411.68 12.8574Z" />
<path d="M2346.71 113.76C2308.4 174.29 2305.3 211.204 2291.54 211.204C2261.67 213.54 2289.24 214.942 2332.71 113.76C2358.39 81.304 2389.05 48.7972 2382.55 66.1201C2396.31 66.1201 2388.3 58.4081 2346.71 113.76Z" />
<path d="M2398.22 207.185C2386.23 224.052 2368.81 224.666 2365.16 217.262C2361.5 209.858 2367.54 200.974 2389.74 190.007C2397.61 186.122 2403.64 182.271 2407.29 189.676C2410.95 197.08 2406.09 203.299 2398.22 207.185Z" />
<path d="M2392.85 237.459C2384.48 240.552 2369.34 228.894 2367.62 225.424C2365.91 221.953 2358.34 201.347 2373.96 210.827C2379.22 204.584 2385.19 221.957 2394.36 228.898C2396.07 232.369 2395.4 236.202 2392.85 237.459Z" />
<path d="M2341.13 217.144C2336.04 219.658 2296.98 215.34 2294.35 210.018C2302.13 199.399 2334.83 209.83 2339.92 207.316C2345.01 204.802 2375.82 216.687 2367.87 217.484C2370.5 222.806 2377.63 229.861 2341.13 217.144Z" />
<path d="M2366.62 218.105C2364.53 219.133 2362.01 218.279 2360.98 216.197C2359.95 214.114 2354.09 214.909 2362.89 210.564C2372.76 199.955 2378.64 197.07 2379.66 199.153C2380.69 201.235 2368.7 217.076 2366.62 218.105Z" />
<path d="M2429.7 223.43C2431.05 246.214 2394.98 240.723 2393.27 237.252C2362.29 206.172 2404.39 194.758 2408.32 192.815C2428.84 184.766 2431.28 198.152 2437.08 209.883C2438.79 213.354 2433.63 221.487 2429.7 223.43Z" />
<path d="M1462.54 257.96C1452.73 281.096 1459.89 301.265 1468.15 301.265C1476.41 301.265 1481.7 289.401 1481.7 257.96C1481.7 246.821 1482.48 237.79 1474.22 237.79C1465.97 237.79 1462.54 246.821 1462.54 257.96Z" />
<path d="M1437.78 281.096C1438.71 292.367 1455.87 303.045 1459.74 303.045C1463.61 303.045 1485.44 300.079 1470.02 287.621C1473.29 278.13 1455.07 281.096 1444.79 274.57C1440.91 274.57 1437.78 277.492 1437.78 281.096Z" />
<path d="M1478.9 328.553C1478.9 335.761 1500.06 377.791 1506 377.791C1512.07 362.961 1488.24 331.609 1488.24 324.401C1488.24 317.193 1463.94 288.808 1466.75 298.299C1460.81 298.299 1451.33 294.146 1478.9 328.553Z" />
<path d="M1466.75 300.079C1466.75 303.028 1468.63 305.418 1470.95 305.418C1473.28 305.418 1475.16 312.537 1475.16 300.079C1480.3 282.875 1480.28 274.57 1477.96 274.57C1475.64 274.57 1466.75 297.13 1466.75 300.079Z" />
<path d="M1434.04 231.265C1413.01 242.537 1433.91 280.503 1437.78 280.503C1479.36 298.299 1470.95 243.954 1470.95 238.384C1469.08 210.502 1456 215.248 1442.92 215.248C1439.05 215.248 1434.04 225.696 1434.04 231.265Z" />
<path d="M1625.72 525.313C1627.8 500.269 1614.68 483.355 1606.84 485.94C1598.99 488.525 1597.68 501.45 1607.52 531.311C1611.01 541.89 1613.09 550.711 1620.94 548.126C1628.78 545.541 1629.21 535.893 1625.72 525.313Z" />
<path d="M2021.82 699.577C1998.6 689.97 1978.49 697.311 1978.57 705.569C1978.64 713.826 1990.55 719.013 2021.99 718.734C2033.13 718.635 2042.16 719.337 2042.09 711.079C2042.02 702.821 2032.96 699.478 2021.82 699.577Z" />
<path d="M1642 495.588C1637.58 485.175 1614.45 479.604 1610.77 480.816C1607.09 482.028 1590.79 492.478 1609.33 499.483C1609.2 509.521 1625.58 501 1637.38 503.979C1641.06 502.767 1643.12 499.01 1642 495.588Z" />
<path d="M1998.46 675.018C1987.2 676.053 1974.85 696.391 1974.88 700.262C1974.92 704.133 1979.9 722.846 1992.22 707.316C2001.75 710.503 1998.62 692.307 2005.05 681.969C2005.02 678.098 2002.07 674.986 1998.46 675.018Z" />
<path d="M1608.54 486.627C1607.62 483.827 1605.08 482.146 1602.87 482.873C1600.67 483.6 1596.65 477.428 1600.55 489.26C1601.05 507.208 1603.67 515.091 1605.87 514.364C1608.08 513.637 1609.46 489.427 1608.54 486.627Z" />
<path d="M1979.74 704.156C1976.79 704.182 1974.42 706.086 1974.44 708.409C1974.46 710.731 1967.36 712.677 1979.81 712.567C1997.06 717.554 2005.37 717.466 2005.35 715.144C2005.32 712.821 1982.69 704.13 1979.74 704.156Z" />
<path d="M1661.15 541.743C1677.59 524.456 1645.86 494.939 1642.18 496.15C1597.11 492.267 1622.11 541.248 1623.86 546.538C1634.36 572.434 1645.3 563.83 1657.73 559.735C1661.4 558.523 1662.89 547.033 1661.15 541.743Z" />
<path d="M2048.26 670.838C2036.8 649.912 1999.02 671.142 1999.06 675.013C1981.63 716.756 2035.9 707.863 2041.47 707.814C2069.33 705.697 2064.47 692.656 2064.35 679.573C2064.32 675.703 2053.83 670.788 2048.26 670.838Z" />
<path d="M1555.69 410.902C1555.69 403.694 1534.52 361.664 1528.59 361.664C1496.29 369.14 1546.34 407.846 1546.34 415.054C1546.34 422.262 1614.98 502.457 1612.17 492.966C1626.19 492.966 1583.26 445.309 1555.69 410.902Z" />
<path d="M1891.51 731.431C1884.65 729.235 1803.69 747.111 1801.88 752.765C1826.18 777.063 1885.76 739.401 1892.62 741.597C1899.49 743.792 1996.78 702.848 1986.88 702.627C1991.15 689.275 1932.68 715.652 1891.51 731.431Z" />
<path d="M1948.14 333.16C1943.46 321.011 1889.12 299.984 1883.19 299.984C1850.89 307.46 1933.76 334.017 1933.76 341.225C1933.76 348.433 2067.76 418.348 2064.95 408.857C2078.97 408.857 2016.82 360.728 1948.14 333.16Z" />
<path d="M1135.09 646.911C1149.65 672 1182.67 724.688 1204.84 724.688C1235.45 716.157 1225.92 699.598 1235.45 675.513C1235.45 648.354 1241.47 606.267 1174.23 596.231C1152.06 596.231 1135.09 619.753 1135.09 646.911Z" fill-opacity="0.8"/>
<path d="M1219.2 641.856C1228.74 681.497 1227.12 704.579 1254.83 704.579C1302.5 704.579 1319.06 661.039 1319.06 633.326C1319.06 605.613 1296.59 583.147 1268.88 583.147C1230.74 594.688 1219.2 614.143 1219.2 641.856Z" fill-opacity="0.8"/>
<path d="M1228.55 738.82C1228.55 766.533 1252.13 777.156 1288.26 787.995C1318.37 797.027 1355 782.088 1355 754.375C1361.02 729.788 1326.51 697.172 1298.8 697.172C1274.21 683.122 1228.55 711.107 1228.55 738.82Z" fill-opacity="0.8"/>
<path d="M1148.18 795.013C1148.18 822.726 1153.17 838.167 1177.28 838.167C1201.39 838.167 1240 811.687 1240 783.974C1250.54 726.771 1224.47 724.262 1200.36 724.262C1176.25 724.262 1148.18 767.301 1148.18 795.013Z" fill-opacity="0.8"/>
<path d="M1086.5 724.557C1086.5 747.953 1111.89 761.835 1135.36 761.835C1158.82 761.835 1202.91 732.278 1202.91 708.883C1202.91 685.488 1143.1 697.87 1119.64 697.87C1096.17 697.87 1093.72 710.155 1086.5 724.557Z" fill-opacity="0.8"/>
<path d="M1099.54 700.612C1099.54 710.591 1109.48 718.681 1121.73 718.681C1133.98 718.681 1187.86 704.568 1187.86 694.588C1187.86 684.609 1153.73 669.635 1121.73 682.542C1109.48 682.542 1099.54 690.632 1099.54 700.612Z" fill-opacity="0.8"/>
<circle cx="30.6088" cy="30.6088" r="30.6088" transform="matrix(-1 0 0 1 1255.1 693.678)" fill-opacity="0.8"/>
<path d="M1205.68 753.877C1205.68 763.854 1179.33 773.948 1219.73 773.948C1252.09 777.476 1237.79 765.861 1237.79 755.884C1237.79 745.908 1263.12 731.814 1219.73 737.82C1189.36 728.803 1205.68 743.9 1205.68 753.877Z" fill-opacity="0.8"/>
<path d="M1244.89 747.277C1254.23 750.791 1254.39 779.011 1268.62 741.197C1283.32 712.157 1267.42 721.442 1258.08 717.928C1248.74 714.414 1244.47 685.742 1234.81 728.472C1215.67 753.716 1235.55 743.763 1244.89 747.277Z" fill-opacity="0.8"/>
<path d="M1257.61 708.23C1271.15 699.198 1313.8 696.689 1249.58 683.14C1219.64 670.37 1229.94 685.635 1227.05 695.182C1224.15 704.728 1195.82 710.86 1239.09 717.712C1265.53 735.158 1254.71 717.777 1257.61 708.23Z" fill-opacity="0.8"/>
<path d="M1216.99 691.027C1209 676.838 1209.7 634.119 1191.37 697.148C1176.38 726.042 1180.56 730.717 1189.86 734.322C1211.94 751.885 1214.97 752.838 1225.05 710.205C1244.43 685.15 1226.29 694.632 1216.99 691.027Z" fill-opacity="0.8"/>
<path d="M2369.34 792.759C2389.03 782.184 2432.01 760.975 2446.55 769.941C2463.18 787.917 2450.23 794.925 2446.75 814.582C2435.76 832.4 2422.69 862.447 2374.52 841.838C2359.97 832.871 2358.35 810.577 2369.34 792.759Z" fill-opacity="0.8"/>
<path d="M2422.47 830.092C2444.76 807.941 2453.03 792.142 2471.21 803.35C2502.49 822.629 2495.74 857.892 2484.54 876.073C2473.33 894.254 2449.5 899.907 2431.32 888.699C2410.97 865.704 2411.27 848.273 2422.47 830.092Z" fill-opacity="0.8"/>
<path d="M2467.82 770.257C2479.03 752.076 2498.8 754.644 2526.88 762.145C2550.29 768.396 2568.28 793.011 2557.07 811.193C2551.08 829.759 2515.25 837.2 2497.06 825.992C2475.25 825.266 2456.61 788.438 2467.82 770.257Z" fill-opacity="0.8"/>
<path d="M2437.82 700.887C2449.03 682.705 2458.55 674.595 2474.37 684.346C2490.18 694.097 2504.81 727.086 2493.6 745.267C2477.38 787.058 2459.26 778.161 2443.44 768.41C2427.62 758.659 2426.61 719.068 2437.82 700.887Z" fill-opacity="0.8"/>
<path d="M2368.86 722.164C2378.32 706.816 2400.6 707.979 2415.99 717.469C2431.39 726.959 2448.36 764.181 2438.89 779.53C2429.43 794.878 2395.2 762.566 2379.81 753.076C2364.41 743.586 2367.77 734.535 2368.86 722.164Z" fill-opacity="0.8"/>
<path d="M2367.73 743.151C2371.77 736.603 2381.56 735.313 2389.6 740.268C2397.64 745.224 2427.27 776.272 2423.24 782.82C2419.2 789.367 2390.75 785.387 2374.98 763.978C2366.94 759.023 2363.7 749.698 2367.73 743.151Z" fill-opacity="0.8"/>
<circle cx="2459.28" cy="778.15" r="23.5903" transform="rotate(-148.348 2459.28 778.15)" fill-opacity="0.8"/>
<path d="M2458.91 751.13C2462.94 744.585 2449.74 727.304 2476.24 743.644C2498.9 754.416 2484.82 756.256 2480.79 762.801C2476.75 769.347 2487.67 788.838 2461.63 767.347C2438.06 760.981 2454.87 757.675 2458.91 751.13Z" fill-opacity="0.8"/>
<path d="M2481.96 771.318C2489.51 772.789 2501.03 754.342 2495.07 784.905C2492.97 809.902 2486.29 797.378 2478.75 795.907C2471.2 794.436 2456.8 811.521 2467.74 779.579C2465.4 755.278 2474.42 769.847 2481.96 771.318Z" fill-opacity="0.8"/>
<path d="M2474.51 802.078C2479.75 813.483 2506.72 832.379 2459.1 815.291C2434.29 811.561 2447.23 805.714 2449.19 798.279C2451.15 790.844 2435.04 775.363 2466.2 788.367C2490.6 787.615 2476.47 794.643 2474.51 802.078Z" fill-opacity="0.8"/>
<path d="M2440.91 796.937C2429.93 803.014 2413.11 831.325 2426.57 782.559C2428.43 757.543 2433.06 756.167 2440.62 757.563C2462.21 754.97 2464.58 755.569 2453.95 787.616C2456.54 811.893 2448.47 798.334 2440.91 796.937Z" fill-opacity="0.8"/>
<path d="M1212.8 453.944C1220.96 439.877 1239.48 410.336 1251.91 410.336C1269.07 415.119 1263.73 424.403 1269.07 437.907C1269.07 453.135 1272.45 476.732 1234.75 482.359C1222.32 482.359 1212.8 469.171 1212.8 453.944Z" fill-opacity="0.8"/>
<path d="M1259.96 456.778C1265.31 434.552 1264.4 421.61 1279.94 421.61C1306.66 421.61 1315.95 446.023 1315.95 461.56C1315.95 477.098 1303.35 489.694 1287.81 489.694C1266.43 483.224 1259.96 472.316 1259.96 456.778Z" fill-opacity="0.8"/>
<path d="M1265.2 402.413C1265.2 386.875 1278.42 380.918 1298.68 374.841C1315.56 369.777 1336.1 378.153 1336.1 393.691C1339.47 407.477 1320.13 425.764 1304.59 425.764C1290.8 433.641 1265.2 417.95 1265.2 402.413Z" fill-opacity="0.8"/>
<path d="M1220.14 370.906C1220.14 355.368 1222.94 346.711 1236.46 346.711C1249.98 346.711 1271.62 361.558 1271.62 377.096C1277.53 409.168 1262.92 410.575 1249.4 410.575C1235.88 410.575 1220.14 386.444 1220.14 370.906Z" fill-opacity="0.8"/>
<path d="M1185.56 410.409C1185.56 397.292 1199.8 389.508 1212.95 389.508C1226.11 389.508 1250.83 406.08 1250.83 419.197C1250.83 432.314 1217.29 425.372 1204.14 425.372C1190.98 425.372 1189.61 418.484 1185.56 410.409Z" fill-opacity="0.8"/>
<path d="M1192.87 423.835C1192.87 418.24 1198.44 413.704 1205.31 413.704C1212.18 413.704 1242.39 421.617 1242.39 427.212C1242.39 432.807 1223.25 441.203 1205.31 433.966C1198.44 433.966 1192.87 429.43 1192.87 423.835Z" fill-opacity="0.8"/>
<circle cx="1262.93" cy="410.561" r="17.1617" transform="rotate(180 1262.93 410.561)" fill-opacity="0.8"/>
<path d="M1252.38 393.97C1252.38 388.376 1237.6 382.716 1260.26 382.716C1278.4 380.739 1270.39 387.251 1270.39 392.845C1270.39 398.438 1284.59 406.34 1260.26 402.973C1243.23 408.029 1252.38 399.564 1252.38 393.97Z" fill-opacity="0.8"/>
<path d="M1274.36 397.671C1279.6 395.7 1279.69 379.878 1287.67 401.08C1295.91 417.362 1286.99 412.156 1281.76 414.126C1276.52 416.096 1274.13 432.172 1268.71 408.214C1257.98 394.06 1269.13 399.641 1274.36 397.671Z" fill-opacity="0.8"/>
<path d="M1281.49 419.563C1289.09 424.628 1313 426.034 1276.99 433.63C1260.21 440.79 1265.98 432.232 1264.36 426.879C1262.74 421.527 1246.85 418.089 1271.11 414.247C1285.94 404.465 1279.87 414.211 1281.49 419.563Z" fill-opacity="0.8"/>
<path d="M1258.72 429.209C1254.24 437.164 1254.63 461.116 1244.35 425.777C1235.95 409.577 1238.3 406.956 1243.51 404.934C1255.89 395.087 1257.59 394.553 1263.24 418.456C1274.11 432.504 1263.94 427.187 1258.72 429.209Z" fill-opacity="0.8"/>
<path d="M1108.36 537.986C1096.44 517.43 1069.38 474.263 1051.22 474.263C1026.14 481.252 1033.95 494.819 1026.14 514.552C1026.14 536.803 1021.21 571.286 1076.3 579.508C1094.46 579.508 1108.36 560.237 1108.36 537.986Z" fill-opacity="0.8"/>
<path d="M1039.45 542.127C1031.64 509.649 1032.97 490.738 1010.26 490.738C971.206 490.738 957.639 526.411 957.639 549.116C957.639 571.821 976.046 590.228 998.751 590.228C1030 580.772 1039.45 564.832 1039.45 542.127Z" fill-opacity="0.8"/>
<path d="M1031.79 462.684C1031.79 439.979 1012.47 431.275 982.872 422.395C958.205 414.995 928.194 427.234 928.194 449.939C923.261 470.084 951.534 496.807 974.239 496.807C994.383 508.318 1031.79 485.389 1031.79 462.684Z" fill-opacity="0.8"/>
<path d="M1097.64 416.645C1097.64 393.939 1093.55 381.289 1073.8 381.289C1054.04 381.289 1022.41 402.984 1022.41 425.689C1013.77 472.556 1035.13 474.612 1054.89 474.612C1074.64 474.612 1097.64 439.35 1097.64 416.645Z" fill-opacity="0.8"/>
<path d="M1148.18 474.37C1148.18 455.202 1127.37 443.828 1108.15 443.828C1088.92 443.828 1052.8 468.044 1052.8 487.212C1052.8 506.38 1101.8 496.235 1121.02 496.235C1140.25 496.235 1142.26 486.17 1148.18 474.37Z" fill-opacity="0.8"/>
<path d="M1137.49 493.988C1137.49 485.812 1129.35 479.184 1119.31 479.184C1109.27 479.184 1065.13 490.747 1065.13 498.923C1065.13 507.1 1093.1 519.368 1119.31 508.793C1129.35 508.793 1137.49 502.165 1137.49 493.988Z" fill-opacity="0.8"/>
<circle cx="25.078" cy="25.078" r="25.078" transform="matrix(1 0 0 -1 1010.04 499.669)" fill-opacity="0.8"/>
<path d="M1050.53 450.347C1050.53 442.173 1072.12 433.903 1039.02 433.903C1012.51 431.013 1024.22 440.529 1024.22 448.703C1024.22 456.877 1003.47 468.424 1039.02 463.503C1063.9 470.891 1050.53 458.521 1050.53 450.347Z" fill-opacity="0.8"/>
<path d="M1018.41 455.755C1010.76 452.876 1010.62 429.755 998.96 460.736C986.918 484.529 999.949 476.922 1007.6 479.801C1015.25 482.68 1018.75 506.171 1026.66 471.162C1042.34 450.479 1026.06 458.634 1018.41 455.755Z" fill-opacity="0.8"/>
<path d="M1007.99 487.747C996.887 495.147 961.943 497.202 1014.57 508.302C1039.09 518.765 1030.65 506.259 1033.03 498.437C1035.4 490.615 1058.61 485.591 1023.16 479.977C1001.5 465.684 1010.36 479.925 1007.99 487.747Z" fill-opacity="0.8"/>
<path d="M1041.27 501.841C1047.81 513.466 1047.24 548.466 1062.26 496.826C1074.53 473.153 1071.11 469.323 1063.49 466.369C1045.4 451.98 1042.92 451.199 1034.66 486.128C1018.78 506.656 1033.64 498.887 1041.27 501.841Z" fill-opacity="0.8"/>
<path d="M1936.92 299.014C1953.61 327.787 1991.48 388.21 2016.91 388.21C2052.01 378.427 2041.08 359.437 2052.01 331.815C2052.01 300.669 2058.92 252.402 1981.81 240.893C1956.38 240.893 1936.92 267.868 1936.92 299.014Z" fill-opacity="0.8"/>
<path d="M2029.62 294.42C2040.55 339.881 2038.69 366.352 2070.47 366.352C2125.14 366.352 2144.13 316.418 2144.13 284.637C2144.13 252.855 2118.37 227.091 2086.59 227.091C2042.85 240.327 2029.62 262.638 2029.62 294.42Z" fill-opacity="0.8"/>
<path d="M2038.79 406.034C2038.79 437.816 2065.83 449.999 2107.26 462.429C2141.79 472.787 2183.8 455.655 2183.8 423.873C2190.71 395.676 2151.13 358.271 2119.35 358.271C2091.15 342.159 2038.79 374.252 2038.79 406.034Z" fill-opacity="0.8"/>
<path d="M1957.48 479.25C1957.48 511.031 1963.21 528.739 1990.86 528.739C2018.51 528.739 2062.79 498.371 2062.79 466.59C2074.87 400.988 2044.98 398.11 2017.33 398.11C1989.68 398.11 1957.48 447.468 1957.48 479.25Z" fill-opacity="0.8"/>
<path d="M1876.18 407.897C1876.18 434.727 1905.3 450.648 1932.21 450.648C1959.12 450.648 2009.68 416.752 2009.68 389.921C2009.68 363.091 1941.09 377.291 1914.18 377.291C1887.27 377.291 1884.46 391.38 1876.18 407.897Z" fill-opacity="0.8"/>
<path d="M1891.14 380.436C1891.14 391.881 1902.53 401.158 1916.58 401.158C1930.63 401.158 1992.42 384.973 1992.42 373.528C1992.42 362.083 1953.28 344.91 1916.58 359.713C1902.53 359.713 1891.14 368.991 1891.14 380.436Z" fill-opacity="0.8"/>
<circle cx="35.1029" cy="35.1029" r="35.1029" transform="matrix(-1 0 0 1 2065.29 354.843)" fill-opacity="0.8"/>
<path d="M2008.62 423.88C2008.62 435.322 1978.4 446.899 2024.74 446.899C2061.84 450.944 2045.45 437.624 2045.45 426.182C2045.45 414.741 2074.5 398.578 2024.74 405.466C1989.91 395.125 2008.62 412.439 2008.62 423.88Z" fill-opacity="0.8"/>
<path d="M2053.59 416.311C2064.3 420.341 2064.49 452.704 2080.81 409.339C2097.66 376.035 2079.42 386.683 2068.72 382.653C2058.01 378.623 2053.11 345.741 2042.03 394.745C2020.08 423.696 2042.88 412.281 2053.59 416.311Z" fill-opacity="0.8"/>
<path d="M2068.17 371.531C2083.71 361.173 2132.62 358.295 2058.96 342.758C2024.63 328.113 2036.45 345.618 2033.13 356.567C2029.8 367.515 1997.31 374.548 2046.93 382.406C2077.26 402.413 2064.85 382.479 2068.17 371.531Z" fill-opacity="0.8"/>
<path d="M2021.59 351.802C2012.43 335.531 2013.23 286.539 1992.21 358.822C1975.02 391.959 1979.82 397.319 1990.49 401.454C2015.81 421.596 2019.28 422.689 2030.84 373.797C2053.07 345.062 2032.26 355.937 2021.59 351.802Z" fill-opacity="0.8"/>
<path d="M1488.17 330.016C1511.04 345.132 1561.16 375.837 1579.92 366.512C1602.24 346.416 1587.21 336.41 1585.15 312.013C1573.72 289.025 1561.12 250.867 1499.98 270.655C1481.21 279.981 1476.75 307.028 1488.17 330.016Z" fill-opacity="0.8"/>
<path d="M1574.62 295.666C1583.63 333.134 1582.1 354.951 1608.3 354.951C1653.35 354.951 1669.01 313.797 1669.01 287.603C1669.01 261.409 1647.77 240.175 1621.58 240.175C1585.53 251.083 1574.62 269.472 1574.62 295.666Z" fill-opacity="0.8"/>
<path d="M1582.18 387.657C1582.18 413.851 1604.47 423.892 1638.62 434.136C1667.08 442.673 1701.7 428.553 1701.7 402.359C1707.39 379.12 1674.77 348.291 1648.58 348.291C1625.34 335.012 1582.18 361.463 1582.18 387.657Z" fill-opacity="0.8"/>
<path d="M1515.17 448C1515.17 474.194 1519.89 488.788 1542.68 488.788C1565.47 488.788 1601.96 463.759 1601.96 437.565C1611.92 383.497 1587.28 381.126 1564.5 381.126C1541.71 381.126 1515.17 421.806 1515.17 448Z" fill-opacity="0.8"/>
<path d="M1448.16 389.192C1448.16 411.305 1472.16 424.426 1494.34 424.426C1516.52 424.426 1558.19 396.49 1558.19 374.377C1558.19 352.264 1501.66 363.967 1479.48 363.967C1457.31 363.967 1454.99 375.579 1448.16 389.192Z" fill-opacity="0.8"/>
<path d="M1460.49 366.559C1460.49 375.992 1469.88 383.638 1481.46 383.638C1493.04 383.638 1543.97 370.298 1543.97 360.866C1543.97 351.433 1511.71 337.28 1481.46 349.479C1469.88 349.479 1460.49 357.126 1460.49 366.559Z" fill-opacity="0.8"/>
<circle cx="28.9312" cy="28.9312" r="28.9312" transform="matrix(-1 0 0 1 1604.03 345.466)" fill-opacity="0.8"/>
<path d="M1557.32 402.365C1557.32 411.795 1532.41 421.336 1570.6 421.336C1601.18 424.671 1587.67 413.692 1587.67 404.262C1587.67 394.832 1611.62 381.511 1570.6 387.188C1541.9 378.665 1557.32 392.935 1557.32 402.365Z" fill-opacity="0.8"/>
<path d="M1594.38 396.127C1603.21 399.448 1603.36 426.121 1616.81 390.38C1630.71 362.932 1615.67 371.708 1606.85 368.386C1598.02 365.065 1593.99 337.964 1584.85 378.352C1566.77 402.213 1585.56 392.805 1594.38 396.127Z" fill-opacity="0.8"/>
<path d="M1606.4 359.22C1619.21 350.683 1659.52 348.311 1598.81 335.505C1570.51 323.435 1580.25 337.863 1577.52 346.887C1574.78 355.91 1548 361.706 1588.9 368.183C1613.89 384.672 1603.66 368.243 1606.4 359.22Z" fill-opacity="0.8"/>
<path d="M1568.01 342.959C1560.46 329.549 1561.12 289.17 1543.79 348.745C1529.63 376.056 1533.58 380.474 1542.37 383.882C1563.24 400.482 1566.1 401.383 1575.63 361.087C1593.95 337.404 1576.8 346.367 1568.01 342.959Z" fill-opacity="0.8"/>
</svg>