<svg width="146" height="153" viewBox="0 0 146 153" fill="none" stroke="#0D0D0D" xmlns="http://www.w3.org/2000/svg">
<path d="M6.61132 94.6548C6.15186 95.6713 7.63816 97.2421 8.26374 97.9169C10.2016 100.007 13.0829 101.426 15.5164 102.869C17.181 103.856 18.8455 104.843 20.5101 105.83C21.9039 106.656 23.5701 108.12 25.1585 108.521C27.046 108.997 28.6265 110.167 30.3327 111.067C32.0255 111.959 34.0645 112.106 35.7328 113.095C37.0597 113.882 38.5925 114.204 39.9586 115.014C41.2543 115.782 42.796 116.109 44.0639 116.861C45.5589 117.747 47.6339 117.804 49.1503 118.703C49.8989 119.147 51.8619 120.066 52.6922 119.988C53.3136 119.929 53.672 120.587 54.4302 120.301C54.7638 120.175 55.0284 119.364 55.2223 119.075C56.0267 117.875 56.3596 117.207 56.6474 115.681C57.1257 113.146 56.2754 110.509 56.7323 108.004C56.9272 106.936 57.5672 101.685 59.3357 102.734"  stroke-linecap="round"/>
<path d="M59.424 103.08C61.2778 102.122 63.9261 102.717 65.6893 101.806C66.4817 101.397 67.8182 102.035 68.7813 101.65C69.5624 101.338 70.6065 101.047 71.4301 100.922C73.5123 100.606 75.7731 99.8505 77.5928 98.8867C79.5126 97.87 81.5234 97.2503 83.4278 96.2493C84.8311 95.5116 87.2244 95.3977 88.2502 94.0548C88.5662 93.6412 89.5019 93.2134 90.0198 93.0499C90.9917 92.7432 92.0125 91.6172 93.0762 91.6342C94.9284 91.664 95.7797 89.1859 97.1778 88.181C98.2459 87.4133 98.9257 86.5159 100.187 86.02C100.662 85.8332 101.483 85.4864 101.796 85.0665C102.246 84.4614 103.38 82.6146 104.052 82.3612C104.483 82.1984 105.642 81.9452 105.89 81.6253C106.259 81.1498 107.294 80.8864 107.808 80.4801C108.386 80.024 109.071 79.692 109.658 79.2295C110.296 78.7272 110.616 77.8944 111.369 77.5539C112.725 76.9404 114.174 75.4216 115.169 74.362C116.289 73.1686 117.829 71.9548 119.163 71.0078C120.546 70.0258 121.343 68.3494 122.577 67.2287C124.181 65.7727 125.252 63.8168 126.364 61.9421C127.933 59.2954 129.758 56.7126 131.287 54.134"  stroke-linecap="round"/>
<path d="M108.317 57.2411C110.28 57.4717 112.646 58.7367 114.618 57.7492C116.348 56.8828 118.278 56.3531 120.127 55.8806C121.115 55.6282 122.174 55.6653 123.155 55.4752C123.879 55.3349 124.938 55.1585 125.665 55.2023C126.47 55.2508 127.577 55.7525 128.311 55.3039C129.077 54.8355 129.997 54.5612 130.724 54.0936"  stroke-linecap="round"/>
<path d="M108.622 57.7155C107.813 57.2357 108.689 53.6439 109.145 52.874C110.089 51.2819 109.776 49.3349 109.623 47.6144C109.449 45.6617 109.217 43.7218 108.972 41.7835C108.842 40.7564 109.339 39.4903 109.162 38.6032C108.933 37.4603 109.296 35.8658 109.367 34.6821C109.487 32.7023 109.977 30.9152 110.117 28.9641"  stroke-linecap="round"/>
<path d="M110.117 28.9641C112.085 30.4479 111.97 32.1035 112.862 34.2598C113.738 36.3782 114.407 38.5419 114.2 40.775C113.718 45.947 115.003 51.9037 112.209 56.6146"  stroke-linecap="round"/>
<path d="M110 47.9683C111.101 48.6214 112.731 46.5794 113.756 46.0873"  stroke-linecap="round"/>
<path d="M110.628 43.9393C111.322 42.7695 112.63 42.5419 113.299 41.4146"  stroke-linecap="round"/>
<path d="M54.3399 74.5358C54.9822 74.9166 55.1267 74.7382 55.838 74.5111C56.3543 74.3464 56.9051 73.9113 57.4435 73.8654C58.0099 73.8171 58.3179 74.0282 58.8957 73.7809C59.4561 73.5409 60.0608 73.3453 60.6214 73.1249C61.6413 72.724 62.2106 71.6327 63.2838 71.3289C65.2359 70.7764 67.1454 69.6787 68.7811 68.4912C70.3054 67.3845 71.4443 65.8967 72.9363 64.7274C74.2315 63.7124 75.4367 62.5965 76.7099 61.5524C77.4948 60.9088 78.0785 60.8056 78.8485 60.3099C80.8761 59.0047 82.1234 57.1779 84.0843 55.7685C86.4799 54.0467 88.6394 51.5611 90.6574 49.4116C92.3098 47.6515 94.1853 46.0794 95.7673 44.2576C96.8235 43.0412 98.4092 42.116 99.3131 40.7519C100.101 39.5622 101.586 38.5022 102.639 37.5071C103.539 36.6566 104.189 35.4984 105.029 34.6039C105.689 33.9005 106.324 33.0605 107.047 32.4096C107.638 31.8781 107.806 31.063 108.476 30.6321C109.046 30.2647 109.299 29.8492 109.642 29.2697"  stroke-linecap="round"/>
<path d="M54.5973 74.1015C53.3142 73.3408 53.3787 70.7751 53.0582 69.521C52.7042 68.1359 52.677 66.3898 51.982 65.1497C50.6644 62.7986 49.3607 59.525 46.3895 58.9646C44.6337 58.6335 43.4296 58.1172 41.7489 59.1476C40.5379 59.8901 39.2203 60.5854 38.1927 61.5712C37.525 62.2118 37.0939 62.6827 36.2711 62.9424C35.3418 63.2357 34.6663 65.1543 34.2018 65.9377C33.7888 66.6342 32.1473 69.0071 31.3679 68.9852C30.9385 68.9731 30.6332 68.492 30.3505 68.9688C30.008 69.5465 29.5083 69.8944 29.1679 70.4685C28.2474 72.021 26.9181 73.5076 25.4304 74.5451C24.5663 75.1478 24.08 76.0503 23.3232 76.7519C22.6581 77.3684 22.213 78.1443 21.4913 78.7142C20.7571 79.294 19.8319 79.9169 19.2939 80.6882C18.3663 82.0177 16.7293 83.0339 15.8294 84.5517C14.9943 85.9602 13.3974 87.078 12.3792 88.3912C11.1395 89.99 9.84113 91.2103 8.19617 92.3668C7.32767 92.9774 5.68381 95.607 4.62459 95.5311"  stroke-linecap="round"/>
<path d="M132.115 55.2117C131.641 56.0102 132.257 57.6491 132.613 58.4413C133.449 60.302 132.915 62.5571 133.209 64.501C133.552 66.7564 134.211 69.4928 132.979 71.5702"  stroke-linecap="round"/>
<path d="M132.078 73.0901C130.75 75.3299 129.442 76.8348 127.3 78.1798C126.359 78.7705 125.497 79.3678 124.618 79.9807C123.598 80.6925 122.86 81.8257 121.878 82.5948C120.008 84.0604 118.173 85.8294 116.304 87.2125C114.911 88.2433 113.87 89.9396 112.302 90.8553C110.871 91.6908 110.229 93.5934 108.751 94.3418C107.664 94.8923 106.852 95.5274 105.662 95.8682C104.897 96.0871 104.084 96.6241 103.494 97.159C102.35 98.1979 101.021 98.7212 99.8452 99.7393C98.5876 100.829 96.4862 101.157 94.9755 101.629C94.4349 101.797 93.8119 102.458 93.339 102.794C93.013 103.025 92.6872 102.838 92.3372 102.999C91.6342 103.321 91.0115 103.887 90.4157 104.37C89.9317 104.762 89.173 104.959 88.6144 105.291C87.7159 105.825 86.6797 106.799 85.6776 107.055C83.5995 107.586 82.2242 107.657 80.4741 109.039C79.5956 109.733 77.1041 110.385 76.037 110.419C75.3115 110.442 74.9618 110.286 74.1998 110.438C73.5205 110.574 72.8155 110.815 72.1613 111.072C71.6749 111.263 70.6469 112.041 70.1184 111.768C69.5302 111.464 68.3359 111.789 67.6806 111.92C66.7079 112.115 65.7618 112.151 64.8304 112.301C64.3855 112.372 64.2093 112.036 63.6852 112.225C63.1988 112.401 62.7773 112.668 62.3009 112.855C61.1876 113.293 58.9595 113.515 57.789 113.261"  stroke-linecap="round"/>
<path d="M6.27299 96.215C4.89578 98.5378 4.01585 100.969 6.09534 103.169C6.8671 103.985 7.71618 105.287 8.74782 105.899C9.8334 106.542 10.919 107.186 12.0046 107.83C13.4258 108.672 14.5292 109.913 15.9809 110.774C17.9688 111.953 19.6208 113.519 21.5735 114.677C24.5654 116.451 27.078 118.869 30.3273 120.177C31.8229 120.779 33.4668 121.728 34.8417 122.544C36.8264 123.72 38.9329 124.676 40.9291 125.859C43.1281 127.163 45.5821 128.349 47.9444 129.122C50.4855 129.955 52.5754 127.748 53.8291 125.878C54.7398 124.52 55.6282 123.565 56.006 121.822C56.2199 120.835 56.3936 118.809 55.8657 117.989"  stroke-linecap="round"/>
<path d="M125.483 78.2757C126.628 77.1731 127.059 75.6167 127.857 74.2711C128.522 73.1488 129.089 72.0435 129.354 70.7569C129.761 68.7713 129.973 66.8513 130.492 64.8782C130.71 64.0472 131.097 63.097 131.156 62.2726"  stroke-linecap="round"/>
<path d="M117.213 86.2843C120.479 82.409 122.416 77.6133 123.785 72.7536C124.671 69.6061 126.639 66.8766 126.877 63.5506"  stroke-linecap="round"/>
<path d="M110.955 89.91C112.371 89.3243 113.161 87.1795 113.9 85.9337C115.11 83.8928 116.473 81.8723 117.88 79.9631C118.962 78.4936 122.334 74.4281 121.036 72.412"  stroke-linecap="round"/>
<path d="M107.045 95.5146C108.005 93.8954 109.148 92.4178 110.123 90.8185C111.579 88.4286 112.538 85.8243 113.59 83.2393C114.753 80.3788 116.13 77.8878 116.114 74.7752"  stroke-linecap="round"/>
<path d="M103.241 96.4866C107.886 91.7924 110.221 85.7596 111.593 79.4305"  stroke-linecap="round"/>
<path d="M89.6472 104.566C90.629 104.888 92.4405 102.079 92.9016 101.442C94.2846 99.5323 95.3816 97.3692 96.5828 95.3433C97.5915 93.642 98.3287 91.6423 98.7467 89.714"  stroke-linecap="round"/>
<path d="M82.9956 107.372C85.084 105.563 86.4492 102.754 87.7011 100.315C88.8322 98.1114 90.0669 95.9033 90.8884 93.5646"  stroke-linecap="round"/>
<path d="M80.0596 108.859C82.7164 104.378 84.6134 99.5893 86.3923 94.7135"  stroke-linecap="round"/>
<path d="M75.3063 110.442C76.6594 107.426 77.8503 104.364 79.7236 101.617C80.4173 100.6 81.1375 99.6173 81.7662 98.557C82.1052 97.9852 81.772 98.5472 81.6947 98.6776"  stroke-linecap="round"/>
<path d="M72.1052 110.892C73.2097 109.318 73.8137 107.967 74.4998 106.165C75.2712 104.139 76.6196 102.288 77.7212 100.43"  stroke-linecap="round"/>
<path d="M68.301 111.864C69.9763 109.038 71.4357 106.082 73.1043 103.268"  stroke-linecap="round"/>
<path d="M64.0546 111.107C65.9692 108.508 67.7249 105.907 69.3806 103.114"  stroke-linecap="round"/>
<path d="M61.0305 112.248C62.2048 110.268 63.2303 108.203 64.2837 106.156C64.5855 105.57 66.1605 103.325 65.7858 102.743"  stroke-linecap="round"/>
<path d="M43.4866 126.495C45.7837 127.59 48.607 123.996 50.3958 123.256"  stroke-linecap="round"/>
<path d="M39.4573 125.867C43.1563 124.586 46.3688 121.899 49.2062 119.323"  stroke-linecap="round"/>
<path d="M36.5867 123.285C38.7932 123.893 41.6036 122.2 43.4153 121.171"  stroke-linecap="round"/>
<path d="M34.9383 122.601C36.6547 121.334 38.6908 120.407 40.2874 119.023"  stroke-linecap="round"/>
<path d="M32.8883 119.625C35.7351 120.011 36.8899 117.365 39.0175 116.216"  stroke-linecap="round"/>
<path d="M22.2014 112.408C23.8781 111.98 25.5936 111.726 27.2603 111.3"  stroke-linecap="round"/>
<path d="M16.7811 110.662C17.4167 110.111 19.5616 111.185 20.4797 111.078C21.6941 110.936 23.1968 109.87 24.1323 109.151"  stroke-linecap="round"/>
<path d="M14.393 109.246C16.6626 109.409 18.7868 107.666 20.9237 108.13"  stroke-linecap="round"/>
<path d="M12.9538 107.219C14.5575 106.547 16.0382 106.062 17.7073 105.635"  stroke-linecap="round"/>
<path d="M9.91427 105.416C10.9225 105.159 12.3517 104.311 13.3727 104.533"  stroke-linecap="round"/>
</svg>