<svg width="21" height="21" viewBox="0 0 21 21" fill="none" xmlns="http://www.w3.org/2000/svg">
<circle cx="10.5" cy="10.5" r="10" fill="#0D0D0D" stroke="#0D0D0D"/>
<path d="M5.08984 13.9805C4.86328 13.8086 4.67578 13.5938 4.52734 13.3359C4.38672 13.0781 4.27344 12.8047 4.1875 12.5156C4.10938 12.2266 4.05469 11.9297 4.02344 11.625C4 11.3125 3.99219 11.0156 4 10.7344C4.07031 10.5234 4.15625 10.332 4.25781 10.1602C4.35938 9.98047 4.47266 9.8125 4.59766 9.65625C4.72266 9.49219 4.85156 9.33984 4.98438 9.19922C5.125 9.05078 5.26172 8.90234 5.39453 8.75391C5.44141 8.75391 5.48438 8.76562 5.52344 8.78906C5.55469 8.70312 5.60156 8.62891 5.66406 8.56641C5.72656 8.50391 5.79297 8.44922 5.86328 8.40234C5.93359 8.34766 6.00391 8.29688 6.07422 8.25C6.14453 8.19531 6.20312 8.13281 6.25 8.0625C6.44531 8.01562 6.61719 7.94922 6.76562 7.86328C6.92188 7.77734 7.07031 7.68359 7.21094 7.58203C7.35156 7.48047 7.49609 7.38672 7.64453 7.30078C7.79297 7.21484 7.96484 7.14844 8.16016 7.10156C8.23047 7.02344 8.31641 6.95703 8.41797 6.90234C8.52734 6.84766 8.63281 6.79688 8.73438 6.75C8.84375 6.70312 8.94531 6.65234 9.03906 6.59766C9.14062 6.54297 9.22266 6.46875 9.28516 6.375C9.33203 6.4375 9.39844 6.46094 9.48438 6.44531C9.57031 6.42188 9.64844 6.39844 9.71875 6.375C9.76562 6.36719 9.80469 6.375 9.83594 6.39844C9.86719 6.42188 9.89453 6.44922 9.91797 6.48047C9.94922 6.50391 9.97266 6.51953 9.98828 6.52734C10.0117 6.53516 10.0352 6.51172 10.0586 6.45703C10.1211 6.46484 10.1367 6.49219 10.1055 6.53906C10.082 6.58594 10.0664 6.61719 10.0586 6.63281C10.1367 6.61719 10.1992 6.63281 10.2461 6.67969C10.3008 6.71875 10.3828 6.74609 10.4922 6.76172C10.5312 6.80078 10.543 6.83203 10.5273 6.85547C10.5117 6.87891 10.5 6.91797 10.4922 6.97266C10.7734 7.05859 10.9531 7.19531 11.0312 7.38281C11.1094 7.5625 11.1172 7.75391 11.0547 7.95703C10.9922 8.15234 10.875 8.33594 10.7031 8.50781C10.5391 8.67188 10.3555 8.78125 10.1523 8.83594C9.91016 8.89844 9.68359 8.96094 9.47266 9.02344C9.26953 9.08594 9.07031 9.15625 8.875 9.23438C8.6875 9.3125 8.50781 9.40625 8.33594 9.51562C8.17188 9.61719 8.02734 9.73828 7.90234 9.87891C7.68359 9.94141 7.48438 10.0273 7.30469 10.1367C7.13281 10.2461 6.96875 10.3672 6.8125 10.5C6.66406 10.6328 6.51953 10.7734 6.37891 10.9219C6.23828 11.0625 6.09766 11.2031 5.95703 11.3438C5.95703 11.4766 5.93359 11.5781 5.88672 11.6484C5.83984 11.7188 5.78906 11.7891 5.73438 11.8594C5.75 12.0078 5.78125 12.1367 5.82812 12.2461C5.88281 12.3477 5.9375 12.4531 5.99219 12.5625C6.61719 12.75 7.27734 12.8672 7.97266 12.9141C8.67578 12.9531 9.37109 12.9766 10.0586 12.9844C10.1289 13.0781 10.207 13.168 10.293 13.2539C10.3867 13.332 10.4688 13.4141 10.5391 13.5C10.6172 13.5859 10.6758 13.6875 10.7148 13.8047C10.7617 13.9141 10.7734 14.0469 10.75 14.2031C10.6172 14.3359 10.4727 14.4648 10.3164 14.5898C10.1602 14.707 10.0039 14.8242 9.84766 14.9414C9.77734 14.9492 9.69141 14.9492 9.58984 14.9414C9.49609 14.9336 9.39453 14.9297 9.28516 14.9297C9.18359 14.9297 9.07812 14.9375 8.96875 14.9531C8.86719 14.9609 8.76953 14.9844 8.67578 15.0234C8.18359 15.0078 7.67969 14.9492 7.16406 14.8477C6.64844 14.7383 6.17188 14.6094 5.73438 14.4609C5.64844 14.3594 5.55859 14.2656 5.46484 14.1797C5.37109 14.0859 5.24609 14.0195 5.08984 13.9805ZM15.1211 12.9375C15.1133 13.0469 15.0859 13.1523 15.0391 13.2539C15 13.3477 14.9492 13.4414 14.8867 13.5352C14.8242 13.6211 14.7539 13.707 14.6758 13.793C14.6055 13.8711 14.5352 13.9414 14.4648 14.0039C14.4883 14.1055 14.4883 14.1836 14.4648 14.2383C14.4492 14.2852 14.4453 14.3594 14.4531 14.4609C14.3359 14.7734 14.1562 14.9805 13.9141 15.082C13.6797 15.1914 13.457 15.1719 13.2461 15.0234C13.1602 14.9609 13.0859 14.8828 13.0234 14.7891C12.9688 14.6875 12.8906 14.625 12.7891 14.6016C12.8125 14.4688 12.8008 14.3359 12.7539 14.2031C12.707 14.0703 12.6562 14 12.6016 13.9922C12.5781 13.8281 12.543 13.6523 12.4961 13.4648C12.4492 13.2773 12.4062 13.0898 12.3672 12.9023C12.3281 12.707 12.293 12.5195 12.2617 12.3398C12.2383 12.1523 12.2305 11.9805 12.2383 11.8242C12.2461 11.7461 12.2305 11.6758 12.1914 11.6133C12.1602 11.5508 12.1367 11.4766 12.1211 11.3906C12.0898 11.2109 12.0781 11.0234 12.0859 10.8281C12.1016 10.625 12.1094 10.4336 12.1094 10.2539C12.1094 10.082 12.0977 9.89844 12.0742 9.70312C12.0586 9.5 12.043 9.30859 12.0273 9.12891C12.0117 8.94141 12.0039 8.77344 12.0039 8.625C12.0039 8.46875 12.0234 8.34766 12.0625 8.26172C12.1094 8.16797 12.1719 8.09375 12.25 8.03906C12.3359 7.97656 12.4141 7.91016 12.4844 7.83984C12.6562 7.85547 12.793 7.92578 12.8945 8.05078C12.9961 8.17578 13.0352 8.29297 13.0117 8.40234C13.1758 8.50391 13.3047 8.63672 13.3984 8.80078C13.5 8.95703 13.5781 9.13672 13.6328 9.33984C13.6953 9.53516 13.7383 9.74609 13.7617 9.97266C13.7852 10.1914 13.8047 10.4102 13.8203 10.6289C13.8359 10.8398 13.8516 11.043 13.8672 11.2383C13.8828 11.4336 13.9141 11.6016 13.9609 11.7422C14.25 11.3281 14.4922 10.9609 14.6875 10.6406C14.8828 10.3125 15.082 10 15.2852 9.70312C15.4883 9.40625 15.7148 9.10547 15.9648 8.80078C16.2148 8.49609 16.5391 8.15234 16.9375 7.76953C17.0156 7.77734 17.0781 7.79297 17.125 7.81641C17.1797 7.83984 17.2266 7.85938 17.2656 7.875C17.3047 7.89062 17.3516 7.90625 17.4062 7.92188C17.4609 7.92969 17.5352 7.92578 17.6289 7.91016C17.6602 7.98828 17.6836 8.04688 17.6992 8.08594C17.7148 8.11719 17.7266 8.15234 17.7344 8.19141C17.75 8.22266 17.7656 8.26562 17.7812 8.32031C17.8047 8.375 17.8398 8.45312 17.8867 8.55469C17.9102 8.57812 17.918 8.60938 17.9102 8.64844C17.9023 8.6875 17.8945 8.72656 17.8867 8.76562C17.8867 8.79688 17.8867 8.82031 17.8867 8.83594C17.8867 8.85156 17.9062 8.85156 17.9453 8.83594C17.9219 8.94531 17.8789 9.04688 17.8164 9.14062C17.7617 9.22656 17.7383 9.33203 17.7461 9.45703C17.5664 9.69141 17.3672 9.93359 17.1484 10.1836C16.9375 10.4336 16.7227 10.6914 16.5039 10.957C16.293 11.2227 16.0898 11.5039 15.8945 11.8008C15.6992 12.0898 15.5312 12.3945 15.3906 12.7148C15.3516 12.7148 15.3203 12.7266 15.2969 12.75C15.2812 12.7734 15.2656 12.8008 15.25 12.832C15.2344 12.8555 15.2148 12.8789 15.1914 12.9023C15.1758 12.9258 15.1523 12.9375 15.1211 12.9375Z" fill="#F7EFEB"/>
</svg>
