<svg width="25" height="25" viewBox="0 0 25 25" fill="none" xmlns="http://www.w3.org/2000/svg">
<circle cx="12.5" cy="12.5" r="11.5" fill="#0D0D0D" stroke="#F7EFEB" stroke-width="2"/>
<g clip-path="url(#clip0_58_438)">
<path d="M12.3656 4.03223C7.61289 4.03223 3.76343 7.88169 3.76343 12.6344C3.76343 16.4408 6.22579 19.6559 9.64515 20.7957C10.0753 20.8709 10.2365 20.6129 10.2365 20.3871C10.2365 20.1828 10.2258 19.5053 10.2258 18.7849C8.0645 19.1828 7.50536 18.258 7.33332 17.7742C7.23655 17.5269 6.81719 16.7634 6.4516 16.5591C6.15052 16.3978 5.72042 16 6.44085 15.9892C7.11827 15.9785 7.60214 16.6129 7.76343 16.8709C8.53762 18.172 9.77418 17.8064 10.2688 17.5806C10.3441 17.0215 10.5699 16.6451 10.8172 16.4301C8.90321 16.215 6.90321 15.4731 6.90321 12.1828C6.90321 11.2473 7.23655 10.4731 7.78493 9.87094C7.69891 9.65588 7.39784 8.77416 7.87095 7.59137C7.87095 7.59137 8.59138 7.36556 10.2365 8.47309C10.9247 8.27954 11.6559 8.18276 12.3871 8.18276C13.1183 8.18276 13.8495 8.27954 14.5376 8.47309C16.1828 7.35481 16.9032 7.59137 16.9032 7.59137C17.3763 8.77416 17.0753 9.65588 16.9892 9.87094C17.5376 10.4731 17.871 11.2365 17.871 12.1828C17.871 15.4838 15.8602 16.215 13.9462 16.4301C14.2581 16.6989 14.5269 17.215 14.5269 18.0215C14.5269 19.172 14.5161 20.0967 14.5161 20.3871C14.5161 20.6129 14.6774 20.8817 15.1075 20.7957C16.8155 20.2196 18.2996 19.1222 19.351 17.6581C20.4023 16.1939 20.9678 14.4369 20.9677 12.6344C20.9677 7.88169 17.1183 4.03223 12.3656 4.03223Z" fill="#F7EFEB"/>
</g>
<defs>
<clipPath id="clip0_58_438">
<rect width="17.2043" height="17.2043" fill="white" transform="translate(3.76343 4.03223)"/>
</clipPath>
</defs>
</svg>
