<svg width="25" height="25" viewBox="0 0 25 25" fill="none" xmlns="http://www.w3.org/2000/svg">
<circle cx="12.5" cy="12.5" r="11.5" fill="#0D0D0D" stroke="#F7EFEB" stroke-width="2"/>
<rect x="6.5" y="6.99976" width="12" height="12" fill="#F7EFEB"/>
<path d="M5.51567 6.65223C5.51567 6.05667 5.37077 5.99976 5.96222 5.99976H17.8049C18.3964 5.99976 19.0762 6.05667 19.0762 6.65223L19.5 18.6873C19.5 19.2828 19.032 19.9998 18.4406 19.9998H5.96222C5.37077 19.9998 5.51567 19.9391 5.51567 19.3435L5.51567 6.65223ZM9.39611 18.1759V11.3782H7.20801V18.1759H9.39611ZM8.30251 10.4495C9.06529 10.4495 9.54009 9.92831 9.54009 9.27535C9.52643 8.60828 9.06621 8.10116 8.31709 8.10116C7.56798 8.10116 7.0786 8.60922 7.0786 9.27535C7.0786 9.92831 7.5534 10.4495 8.28793 10.4495H8.30251ZM12.7753 18.1759V14.3795C12.7753 14.1763 12.7899 13.9731 12.8482 13.8282C13.0059 13.4227 13.3659 13.0021 13.971 13.0021C14.7629 13.0021 15.0791 13.6249 15.0791 14.5395V18.1759H17.2672V14.277C17.2672 12.1883 16.1882 11.2173 14.7483 11.2173C13.5873 11.2173 13.0669 11.8759 12.7753 12.3397V12.3633H12.7607L12.7753 12.3397V11.3782H10.5881C10.6155 12.0161 10.5881 18.1759 10.5881 18.1759H12.7753Z" fill="#0D0D0D"/>
</svg>
